<svg width="12" height="9" viewBox="0 0 12 9" fill="none" xmlns="http://www.w3.org/2000/svg">
<path d="M0.2023 5.10987L0.285013 5.20684L3.73811 8.70663C4.12537 9.0991 4.75178 9.09762 5.1372 8.7032L5.22549 8.59982C5.51968 8.20423 5.48885 7.63825 5.13387 7.27846L3.38419 5.50635L11.0107 5.50746C11.5571 5.50746 12 5.05642 12 4.5L11.9923 4.37363C11.9312 3.87686 11.5151 3.49254 11.0107 3.49254L3.38529 3.49142L5.13392 1.72156C5.52119 1.32904 5.52268 0.691159 5.13725 0.296788C4.75186 -0.0975994 4.12545 -0.0991105 3.73818 0.293364L0.284486 3.7938C-0.0640213 4.14776 -0.0934109 4.71472 0.2023 5.10987Z" fill="#637381"/>
</svg>
