<svg width="12" height="9" viewBox="0 0 12 9" fill="none" xmlns="http://www.w3.org/2000/svg">
<path d="M11.7977 5.10987L11.715 5.20684L8.26189 8.70663C7.87463 9.0991 7.24822 9.09762 6.8628 8.7032L6.77451 8.59982C6.48032 8.20423 6.51115 7.63825 6.86613 7.27846L8.61581 5.50635L0.989286 5.50746C0.442908 5.50746 0 5.05642 0 4.5L0.0077076 4.37363C0.0687523 3.87686 0.484938 3.49254 0.989286 3.49254L8.61471 3.49142L6.86608 1.72156C6.47881 1.32904 6.47732 0.691159 6.86275 0.296788C7.24814 -0.0975994 7.87455 -0.0991105 8.26182 0.293364L11.7155 3.7938C12.064 4.14776 12.0934 4.71472 11.7977 5.10987Z" fill="#637381"/>
</svg>
