<svg width="15" height="15" viewBox="0 0 15 15" fill="none" xmlns="http://www.w3.org/2000/svg">
<path fill-rule="evenodd" clip-rule="evenodd" d="M10.9277 12.2341L7.9834 10.6098C8.53028 10.1707 8.89892 9.59513 9.08936 8.88293C9.27979 8.17073 9.375 7.57561 9.375 7.09756V5.12195C9.375 4.79024 9.2749 4.46098 9.07471 4.13415C8.87451 3.80732 8.61084 3.5122 8.28369 3.24878C7.95654 2.98536 7.58301 2.77073 7.16309 2.60488C6.74316 2.43902 6.31348 2.3561 5.87402 2.3561C5.44433 2.3561 5.01709 2.43902 4.59229 2.60488C4.16748 2.77073 3.78906 2.98536 3.45703 3.24878C3.125 3.5122 2.85645 3.80732 2.65137 4.13415C2.44629 4.46098 2.34375 4.79024 2.34375 5.12195V7.09756C2.34375 7.52683 2.45117 8.10731 2.66602 8.83902C2.88086 9.57073 3.2666 10.1561 3.82324 10.5951L0.791016 12.2341L0.395508 12.4683C0.131835 12.6244 0 12.8098 0 13.0244V14.2098C0 14.4341 0.0781242 14.622 0.234375 14.7732C0.390626 14.9244 0.576171 15 0.791016 15H10.9277C11.1426 15 11.3281 14.9244 11.4844 14.7732C11.6406 14.622 11.7188 14.4341 11.7188 14.2098V13.0244C11.7188 12.7902 11.5869 12.6 11.3232 12.4537L10.9277 12.2341ZM14.209 9.90732L11.2207 8.26829C11.7676 7.83902 12.1436 7.26586 12.3486 6.54878C12.5537 5.8317 12.6562 5.23903 12.6562 4.77073V2.79512C12.6562 2.46341 12.5537 2.13171 12.3486 1.8C12.1436 1.46829 11.875 1.17073 11.543 0.907317C11.2109 0.643901 10.8325 0.42683 10.4077 0.256098C9.98291 0.085365 9.55078 0 9.11133 0C8.54492 0 7.99317 0.136584 7.45605 0.409756C6.91894 0.682928 6.47949 1.01951 6.1377 1.41951C6.33301 1.42927 6.5332 1.43902 6.73828 1.44878C6.94336 1.45854 7.13867 1.49268 7.32422 1.55122C7.56836 1.36585 7.84424 1.21951 8.15186 1.1122C8.45947 1.00488 8.77929 0.951219 9.11133 0.951219C9.79493 0.951219 10.4004 1.17073 10.9277 1.60976C11.4551 2.04878 11.7188 2.4439 11.7188 2.79512V4.77073C11.7188 5.13171 11.6382 5.60244 11.4771 6.18293C11.3159 6.76342 11.0352 7.21463 10.6348 7.53659C10.5078 7.63415 10.4126 7.7561 10.3491 7.90244C10.2856 8.04878 10.2637 8.2 10.2832 8.3561C10.293 8.5122 10.3418 8.6561 10.4297 8.7878C10.5176 8.91951 10.6299 9.02439 10.7666 9.10244L13.7549 10.7268C13.7744 10.7366 13.7915 10.7439 13.8062 10.7488C13.8208 10.7537 13.833 10.761 13.8428 10.7707C13.8818 10.7805 13.9209 10.7976 13.96 10.822C13.999 10.8463 14.0332 10.8683 14.0625 10.8878V11.722H12.1729C12.3096 11.8293 12.4097 11.961 12.4731 12.1171C12.5366 12.2732 12.5977 12.4537 12.6562 12.6585H14.209C14.4238 12.6585 14.6094 12.5829 14.7656 12.4317C14.9219 12.2805 15 12.0927 15 11.8683V10.6976C15 10.4634 14.8682 10.2732 14.6045 10.1268L14.209 9.90732Z" fill="#7C92A5"/>
</svg>
