<svg width="16" height="23" viewBox="0 0 16 23" fill="none" xmlns="http://www.w3.org/2000/svg">
<path fill-rule="evenodd" clip-rule="evenodd" d="M8.00799 0C3.60596 0 0.0246582 3.5813 0.0246582 7.98329C0.0246582 13.4463 7.16896 21.4663 7.47313 21.8051C7.75884 22.1233 8.25766 22.1227 8.54285 21.8051C8.84702 21.4663 15.9913 13.4463 15.9913 7.98329C15.9912 3.5813 12.41 0 8.00799 0ZM8.00799 20.2236C5.60357 17.3675 1.46231 11.7327 1.46231 7.98337C1.46231 4.374 4.39866 1.43765 8.00799 1.43765C11.6173 1.43765 14.5537 4.374 14.5537 7.98333C14.5536 11.7328 10.413 17.3666 8.00799 20.2236ZM8.00799 3.96672C5.79322 3.96672 3.99142 5.76856 3.99142 7.98333C3.99142 10.1981 5.79326 11.9999 8.00799 11.9999C10.2227 11.9999 12.0245 10.1981 12.0245 7.98333C12.0245 5.76856 10.2227 3.96672 8.00799 3.96672ZM8.00799 10.5623C6.58592 10.5623 5.42907 9.4054 5.42907 7.98333C5.42907 6.56126 6.58597 5.40437 8.00799 5.40437C9.43001 5.40437 10.5869 6.56126 10.5869 7.98333C10.5869 9.4054 9.43001 10.5623 8.00799 10.5623Z" fill="currentColor"/>
<path fill-rule="evenodd" clip-rule="evenodd" d="M8.00799 0C3.60596 0 0.0246582 3.5813 0.0246582 7.98329C0.0246582 13.4463 7.16896 21.4663 7.47313 21.8051C7.75884 22.1233 8.25766 22.1227 8.54285 21.8051C8.84702 21.4663 15.9913 13.4463 15.9913 7.98329C15.9912 3.5813 12.41 0 8.00799 0ZM8.00799 20.2236C5.60357 17.3675 1.46231 11.7327 1.46231 7.98337C1.46231 4.374 4.39866 1.43765 8.00799 1.43765C11.6173 1.43765 14.5537 4.374 14.5537 7.98333C14.5536 11.7328 10.413 17.3666 8.00799 20.2236ZM8.00799 3.96672C5.79322 3.96672 3.99142 5.76856 3.99142 7.98333C3.99142 10.1981 5.79326 11.9999 8.00799 11.9999C10.2227 11.9999 12.0245 10.1981 12.0245 7.98333C12.0245 5.76856 10.2227 3.96672 8.00799 3.96672ZM8.00799 10.5623C6.58592 10.5623 5.42907 9.4054 5.42907 7.98333C5.42907 6.56126 6.58597 5.40437 8.00799 5.40437C9.43001 5.40437 10.5869 6.56126 10.5869 7.98333C10.5869 9.4054 9.43001 10.5623 8.00799 10.5623Z" fill="currentColor"/>
</svg>
