<svg width="15" height="16" viewBox="0 0 15 16" fill="none" xmlns="http://www.w3.org/2000/svg">
<path fill-rule="evenodd" clip-rule="evenodd" d="M14.729 15.6592C14.5483 15.8447 14.3262 15.9375 14.0625 15.9375H0.9375C0.673828 15.9375 0.45166 15.8447 0.270996 15.6592C0.090332 15.4736 0 15.2539 0 15V3.28125C0 3.01758 0.090332 2.79541 0.270996 2.61475C0.45166 2.43408 0.673828 2.34375 0.9375 2.34375H4.6875V1.40625C4.6875 1.2793 4.73389 1.16943 4.82666 1.07666C4.91943 0.983887 5.0293 0.9375 5.15625 0.9375C5.2832 0.9375 5.39307 0.983887 5.48584 1.07666C5.57861 1.16943 5.625 1.2793 5.625 1.40625V2.34375H9.375V1.40625C9.375 1.2793 9.42139 1.16943 9.51416 1.07666C9.60693 0.983887 9.7168 0.9375 9.84375 0.9375C9.9707 0.9375 10.0806 0.983887 10.1733 1.07666C10.2661 1.16943 10.3125 1.2793 10.3125 1.40625V2.34375H14.0625C14.3262 2.34375 14.5483 2.43408 14.729 2.61475C14.9097 2.79541 15 3.01758 15 3.28125V15C15 15.2539 14.9097 15.4736 14.729 15.6592ZM0.9375 15H14.0625V3.28125H10.3125V3.75C10.3125 3.87695 10.2661 3.98682 10.1733 4.07959C10.0806 4.17236 9.9707 4.21875 9.84375 4.21875C9.7168 4.21875 9.60693 4.17236 9.51416 4.07959C9.42139 3.98682 9.375 3.87695 9.375 3.75V3.28125H5.625V3.75C5.625 3.87695 5.57861 3.98682 5.48584 4.07959C5.39307 4.17236 5.2832 4.21875 5.15625 4.21875C5.0293 4.21875 4.91943 4.17236 4.82666 4.07959C4.73389 3.98682 4.6875 3.87695 4.6875 3.75V3.28125H0.9375V15ZM11.7188 8.4375C11.8457 8.4375 11.9556 8.39111 12.0483 8.29834C12.1411 8.20557 12.1875 8.0957 12.1875 7.96875V7.03125C12.1875 6.9043 12.1411 6.79443 12.0483 6.70166C11.9556 6.60889 11.8457 6.5625 11.7188 6.5625H10.7812C10.6543 6.5625 10.5444 6.60889 10.4517 6.70166C10.3589 6.79443 10.3125 6.9043 10.3125 7.03125V7.96875C10.3125 8.0957 10.3589 8.20557 10.4517 8.29834C10.5444 8.39111 10.6543 8.4375 10.7812 8.4375H11.7188ZM8.29834 8.29834C8.20557 8.39111 8.0957 8.4375 7.96875 8.4375H7.03125C6.9043 8.4375 6.79443 8.39111 6.70166 8.29834C6.60889 8.20557 6.5625 8.0957 6.5625 7.96875V7.03125C6.5625 6.9043 6.60889 6.79443 6.70166 6.70166C6.79443 6.60889 6.9043 6.5625 7.03125 6.5625H7.96875C8.0957 6.5625 8.20557 6.60889 8.29834 6.70166C8.39111 6.79443 8.4375 6.9043 8.4375 7.03125V7.96875C8.4375 8.0957 8.39111 8.20557 8.29834 8.29834ZM4.21875 8.4375C4.3457 8.4375 4.45557 8.39111 4.54834 8.29834C4.64111 8.20557 4.6875 8.0957 4.6875 7.96875V7.03125C4.6875 6.9043 4.64111 6.79443 4.54834 6.70166C4.45557 6.60889 4.3457 6.5625 4.21875 6.5625H3.28125C3.1543 6.5625 3.04443 6.60889 2.95166 6.70166C2.85889 6.79443 2.8125 6.9043 2.8125 7.03125V7.96875C2.8125 8.0957 2.85889 8.20557 2.95166 8.29834C3.04443 8.39111 3.1543 8.4375 3.28125 8.4375H4.21875ZM12.0483 12.0483C11.9556 12.1411 11.8457 12.1875 11.7188 12.1875H10.7812C10.6543 12.1875 10.5444 12.1411 10.4517 12.0483C10.3589 11.9556 10.3125 11.8457 10.3125 11.7188V10.7812C10.3125 10.6543 10.3589 10.5444 10.4517 10.4517C10.5444 10.3589 10.6543 10.3125 10.7812 10.3125H11.7188C11.8457 10.3125 11.9556 10.3589 12.0483 10.4517C12.1411 10.5444 12.1875 10.6543 12.1875 10.7812V11.7188C12.1875 11.8457 12.1411 11.9556 12.0483 12.0483ZM7.96875 12.1875C8.0957 12.1875 8.20557 12.1411 8.29834 12.0483C8.39111 11.9556 8.4375 11.8457 8.4375 11.7188V10.7812C8.4375 10.6543 8.39111 10.5444 8.29834 10.4517C8.20557 10.3589 8.0957 10.3125 7.96875 10.3125H7.03125C6.9043 10.3125 6.79443 10.3589 6.70166 10.4517C6.60889 10.5444 6.5625 10.6543 6.5625 10.7812V11.7188C6.5625 11.8457 6.60889 11.9556 6.70166 12.0483C6.79443 12.1411 6.9043 12.1875 7.03125 12.1875H7.96875ZM4.54834 12.0483C4.45557 12.1411 4.3457 12.1875 4.21875 12.1875H3.28125C3.1543 12.1875 3.04443 12.1411 2.95166 12.0483C2.85889 11.9556 2.8125 11.8457 2.8125 11.7188V10.7812C2.8125 10.6543 2.85889 10.5444 2.95166 10.4517C3.04443 10.3589 3.1543 10.3125 3.28125 10.3125H4.21875C4.3457 10.3125 4.45557 10.3589 4.54834 10.4517C4.64111 10.5444 4.6875 10.6543 4.6875 10.7812V11.7188C4.6875 11.8457 4.64111 11.9556 4.54834 12.0483Z" fill="#637381"/>
</svg>
