<svg width="18" height="18" viewBox="0 0 18 18" fill="none" xmlns="http://www.w3.org/2000/svg">
<path fill-rule="evenodd" clip-rule="evenodd" d="M9 18C10.2422 18 11.4111 17.7656 12.5068 17.2969C13.6025 16.8281 14.5576 16.1865 15.3721 15.3721C16.1865 14.5576 16.8281 13.6025 17.2969 12.5068C17.7656 11.4111 18 10.2422 18 9C18 7.75781 17.7656 6.58887 17.2969 5.49316C16.8281 4.39746 16.1865 3.44238 15.3721 2.62793C14.5576 1.81348 13.6025 1.17188 12.5068 0.703125C11.4111 0.234375 10.2422 0 9 0C7.75781 0 6.58887 0.234375 5.49316 0.703125C4.39746 1.17188 3.44238 1.81348 2.62793 2.62793C1.81348 3.44238 1.17188 4.39746 0.703125 5.49316C0.234375 6.58887 0 7.75781 0 9C0 10.2422 0.234375 11.4111 0.703125 12.5068C1.17188 13.6025 1.81348 14.5576 2.62793 15.3721C3.44238 16.1865 4.39746 16.8281 5.49316 17.2969C6.58887 17.7656 7.75781 18 9 18ZM9 16.875C7.91016 16.875 6.8877 16.667 5.93262 16.251C4.97754 15.835 4.14551 15.2725 3.43652 14.5635C2.72754 13.8545 2.16504 13.0225 1.74902 12.0674C1.33301 11.1123 1.125 10.0898 1.125 9C1.125 7.91016 1.33301 6.8877 1.74902 5.93262C2.16504 4.97754 2.72754 4.14551 3.43652 3.43652C4.14551 2.72754 4.97754 2.16504 5.93262 1.74902C6.8877 1.33301 7.91016 1.125 9 1.125C10.0898 1.125 11.1123 1.33301 12.0674 1.74902C13.0225 2.16504 13.8545 2.72754 14.5635 3.43652C15.2725 4.14551 15.835 4.97754 16.251 5.93262C16.667 6.8877 16.875 7.91016 16.875 9C16.875 10.0898 16.667 11.1123 16.251 12.0674C15.835 13.0225 15.2725 13.8545 14.5635 14.5635C13.8545 15.2725 13.0225 15.835 12.0674 16.251C11.1123 16.667 10.0898 16.875 9 16.875ZM6.96973 8.10352C6.75293 8.32617 6.49219 8.4375 6.1875 8.4375C5.87109 8.4375 5.60449 8.32617 5.3877 8.10352C5.1709 7.88086 5.0625 7.61719 5.0625 7.3125C5.0625 7.00781 5.1709 6.74414 5.3877 6.52148C5.60449 6.29883 5.87109 6.1875 6.1875 6.1875C6.49219 6.1875 6.75293 6.29883 6.96973 6.52148C7.18652 6.74414 7.29492 7.00781 7.29492 7.3125C7.29492 7.61719 7.18652 7.88086 6.96973 8.10352ZM11.8125 8.4375C12.1172 8.4375 12.3779 8.32617 12.5947 8.10352C12.8115 7.88086 12.9199 7.61719 12.9199 7.3125C12.9199 7.00781 12.8115 6.74414 12.5947 6.52148C12.3779 6.29883 12.1172 6.1875 11.8125 6.1875C11.4961 6.1875 11.2295 6.29883 11.0127 6.52148C10.7959 6.74414 10.6875 7.00781 10.6875 7.3125C10.6875 7.61719 10.7959 7.88086 11.0127 8.10352C11.2295 8.32617 11.4961 8.4375 11.8125 8.4375ZM8.92969 14.6514C8.91797 14.6572 8.90625 14.6602 8.89453 14.6602C8.03906 14.6602 7.30371 14.4961 6.68848 14.168C6.07324 13.8398 5.56641 13.4795 5.16797 13.0869C4.76953 12.6943 4.47363 12.3252 4.28027 11.9795C4.08691 11.6338 3.98438 11.4492 3.97266 11.4258C3.90234 11.2734 3.89355 11.127 3.94629 10.9863C3.99902 10.8457 4.10156 10.7402 4.25391 10.6699C4.39453 10.6113 4.53516 10.6084 4.67578 10.6611C4.81641 10.7139 4.92188 10.8105 4.99219 10.9512C5.00391 10.9746 5.08887 11.124 5.24707 11.3994C5.40527 11.6748 5.64258 11.9678 5.95898 12.2783C6.27539 12.5889 6.67676 12.876 7.16309 13.1396C7.64941 13.4033 8.23242 13.5352 8.91211 13.5352L8.92969 13.5264C8.94141 13.5205 8.95312 13.5176 8.96484 13.5176C9.67969 13.5176 10.292 13.3828 10.8018 13.1133C11.3115 12.8438 11.7275 12.5508 12.0498 12.2344C12.3721 11.918 12.6094 11.6279 12.7617 11.3643C12.9141 11.1006 12.9902 10.9629 12.9902 10.9512C13.0488 10.8105 13.1514 10.7139 13.2979 10.6611C13.4443 10.6084 13.5879 10.6113 13.7285 10.6699C13.8691 10.7402 13.9688 10.8457 14.0273 10.9863C14.0859 11.127 14.0801 11.2676 14.0098 11.4082C13.998 11.4434 13.8984 11.6309 13.7109 11.9707C13.5234 12.3105 13.2275 12.6768 12.8232 13.0693C12.4189 13.4619 11.9004 13.8223 11.2676 14.1504C10.6348 14.4785 9.86719 14.6426 8.96484 14.6426C8.95312 14.6426 8.94141 14.6455 8.92969 14.6514Z" fill="#637381"/>
</svg>
