<svg width="25" height="21" viewBox="0 0 25 21" fill="none" xmlns="http://www.w3.org/2000/svg">
<path fill-rule="evenodd" clip-rule="evenodd" d="M19.5703 16.3281L15.6445 14.1602C16.3737 13.5742 16.8652 12.806 17.1191 11.8555C17.373 10.9049 17.5 10.1107 17.5 9.47266V6.83594C17.5 6.39323 17.3665 5.95378 17.0996 5.51758C16.8327 5.08138 16.4811 4.6875 16.0449 4.33594C15.6087 3.98437 15.1107 3.69792 14.5508 3.47656C13.9909 3.25521 13.418 3.14453 12.832 3.14453C12.2591 3.14453 11.6895 3.25521 11.123 3.47656C10.5566 3.69792 10.0521 3.98437 9.60938 4.33594C9.16666 4.6875 8.80859 5.08138 8.53516 5.51758C8.26172 5.95378 8.125 6.39323 8.125 6.83594V9.47266C8.125 10.0456 8.26823 10.8203 8.55469 11.7969C8.84115 12.7734 9.35546 13.5547 10.0977 14.1406L6.05469 16.3281L5.52734 16.6406C5.17578 16.849 5 17.0964 5 17.3828V18.9648C5 19.2643 5.10417 19.515 5.3125 19.7168C5.52083 19.9186 5.76823 20.0195 6.05469 20.0195H19.5703C19.8568 20.0195 20.1042 19.9186 20.3125 19.7168C20.5208 19.515 20.625 19.2643 20.625 18.9648V17.3828C20.625 17.0703 20.4492 16.8164 20.0977 16.6211L19.5703 16.3281ZM19.375 18.7695H6.25V17.6562L6.39648 17.5586C6.45508 17.5195 6.51042 17.4935 6.5625 17.4805C6.57552 17.4674 6.58854 17.4577 6.60156 17.4512C6.61458 17.4447 6.6276 17.4414 6.64062 17.4414L10.6836 15.2344C10.8659 15.1432 11.0156 15.0098 11.1328 14.834C11.25 14.6582 11.3151 14.4661 11.3281 14.2578C11.3542 14.0495 11.3249 13.8477 11.2402 13.6523C11.1556 13.457 11.0352 13.2943 10.8789 13.1641C10.345 12.7474 9.96094 12.1517 9.72656 11.377C9.49219 10.6022 9.375 9.96745 9.375 9.47266V6.83594C9.375 6.38021 9.72981 5.85938 10.4395 5.27344C11.1491 4.6875 11.9466 4.39453 12.832 4.39453C13.7435 4.39453 14.541 4.6875 15.2246 5.27344C15.9082 5.85938 16.25 6.38021 16.25 6.83594V9.47266C16.25 9.96745 16.1523 10.6022 15.957 11.377C15.7617 12.1517 15.3971 12.7474 14.8633 13.1641C14.694 13.2943 14.5671 13.457 14.4824 13.6523C14.3978 13.8477 14.3685 14.0495 14.3945 14.2578C14.4076 14.4661 14.4727 14.6582 14.5898 14.834C14.707 15.0098 14.8568 15.1497 15.0391 15.2539L18.9648 17.4219C18.9909 17.4349 19.0137 17.4479 19.0332 17.4609C19.0527 17.474 19.069 17.4805 19.082 17.4805L19.2383 17.5586C19.2904 17.5846 19.3359 17.6172 19.375 17.6562V18.7695ZM23.9453 13.2227L19.9609 11.0352C20.6901 10.4622 21.1914 9.69727 21.4648 8.74023C21.7383 7.7832 21.875 6.99219 21.875 6.36719V3.73047C21.875 3.28776 21.7383 2.84505 21.4648 2.40234C21.1914 1.95963 20.8333 1.5625 20.3906 1.21094C19.9479 0.859373 19.4434 0.569663 18.877 0.341797C18.3105 0.113931 17.7344 0 17.1484 0C16.3932 0 15.6576 0.18229 14.9414 0.546875C14.2253 0.91146 13.6393 1.36067 13.1836 1.89453C13.444 1.90755 13.7109 1.92057 13.9844 1.93359C14.2578 1.94661 14.5182 1.99219 14.7656 2.07031C15.0911 1.82292 15.459 1.6276 15.8691 1.48438C16.2793 1.34115 16.7057 1.26953 17.1484 1.26953C18.0599 1.26953 18.8672 1.5625 19.5703 2.14844C20.2734 2.73438 20.625 3.26172 20.625 3.73047V6.36719C20.625 6.84896 20.5176 7.47721 20.3027 8.25195C20.0879 9.0267 19.7135 9.6289 19.1797 10.0586C19.0104 10.1888 18.8835 10.3516 18.7988 10.5469C18.7142 10.7422 18.6849 10.944 18.7109 11.1523C18.724 11.3607 18.7891 11.5527 18.9062 11.7285C19.0234 11.9043 19.1732 12.0443 19.3555 12.1484L23.3398 14.3164C23.3659 14.3294 23.3887 14.3392 23.4082 14.3457C23.4277 14.3522 23.444 14.362 23.457 14.375C23.5091 14.388 23.5612 14.4108 23.6133 14.4434C23.6654 14.4759 23.7109 14.5052 23.75 14.5312V15.6445H21.2305C21.4128 15.7878 21.5462 15.9635 21.6309 16.1719C21.7155 16.3802 21.7969 16.6211 21.875 16.8945H23.9453C24.2318 16.8945 24.4792 16.7936 24.6875 16.5918C24.8958 16.39 25 16.1393 25 15.8398V14.2773C25 13.9648 24.8242 13.7109 24.4727 13.5156L23.9453 13.2227ZM1.05469 13.2227L5.03906 11.0352C4.30989 10.4622 3.8086 9.69727 3.53516 8.74023C3.26172 7.7832 3.125 6.99219 3.125 6.36719V3.73047C3.125 3.28776 3.26172 2.84505 3.53516 2.40234C3.8086 1.95963 4.16666 1.5625 4.60938 1.21094C5.05209 0.859373 5.55664 0.569663 6.12305 0.341797C6.68946 0.113931 7.26562 0 7.85156 0C8.60677 0 9.34244 0.18229 10.0586 0.546875C10.7747 0.91146 11.3607 1.36067 11.8164 1.89453C11.556 1.90755 11.2891 1.92057 11.0156 1.93359C10.7422 1.94661 10.4818 1.99219 10.2344 2.07031C9.90885 1.82292 9.54102 1.6276 9.13086 1.48438C8.7207 1.34115 8.29427 1.26953 7.85156 1.26953C6.9401 1.26953 6.13282 1.5625 5.42969 2.14844C4.72656 2.73438 4.375 3.26172 4.375 3.73047V6.36719C4.375 6.84896 4.48242 7.47721 4.69727 8.25195C4.91211 9.0267 5.28646 9.6289 5.82031 10.0586C5.98958 10.1888 6.11654 10.3516 6.20117 10.5469C6.28581 10.7422 6.3151 10.944 6.28906 11.1523C6.27604 11.3607 6.21094 11.5527 6.09375 11.7285C5.97656 11.9043 5.82682 12.0443 5.64453 12.1484L1.66016 14.3164C1.63411 14.3294 1.61133 14.3392 1.5918 14.3457C1.57227 14.3522 1.55599 14.362 1.54297 14.375C1.49089 14.388 1.4388 14.4108 1.38672 14.4434C1.33464 14.4759 1.28906 14.5052 1.25 14.5312V15.6445H3.76953C3.58724 15.7878 3.45378 15.9635 3.36914 16.1719C3.2845 16.3802 3.20313 16.6211 3.125 16.8945H1.05469C0.768228 16.8945 0.520834 16.7936 0.3125 16.5918C0.104166 16.39 0 16.1393 0 15.8398V14.2773C0 13.9648 0.175779 13.7109 0.527344 13.5156L1.05469 13.2227Z" fill="currentColor"/>
</svg>
