<svg width="15" height="15" viewBox="0 0 15 15" fill="none" xmlns="http://www.w3.org/2000/svg">
<path fill-rule="evenodd" clip-rule="evenodd" d="M7.5 15C11.6421 15 15 11.6421 15 7.5C15 3.35786 11.6421 0 7.5 0C3.35786 0 0 3.35786 0 7.5C0 11.6421 3.35786 15 7.5 15ZM8.208 4.761C8.298 4.779 8.37675 4.76325 8.44425 4.71375C8.51175 4.66425 8.57025 4.60125 8.61975 4.52475C8.66925 4.44825 8.70975 4.365 8.74125 4.275C8.77275 4.185 8.7975 4.1085 8.8155 4.0455C8.8155 3.9285 8.8335 3.83175 8.8695 3.75525C8.9055 3.67875 8.9235 3.6135 8.9235 3.5595C8.9235 3.4965 8.91675 3.429 8.90325 3.357C8.88975 3.285 8.883 3.213 8.883 3.141C8.811 3.024 8.757 2.9115 8.721 2.8035C8.685 2.6955 8.604 2.619 8.478 2.574C8.451 2.574 8.40825 2.58075 8.34975 2.59425C8.29125 2.60775 8.2305 2.62125 8.1675 2.63475C8.1045 2.64825 8.04375 2.66175 7.98525 2.67525C7.92675 2.68875 7.8795 2.6955 7.8435 2.6955C7.7265 2.8665 7.6275 3.0285 7.5465 3.1815C7.4655 3.3345 7.425 3.5325 7.425 3.7755C7.425 3.8565 7.416 3.951 7.398 4.059C7.38 4.167 7.4025 4.248 7.4655 4.302C7.5375 4.437 7.64775 4.54725 7.79625 4.63275C7.94475 4.71825 8.082 4.761 8.208 4.761ZM7.1955 12.6045C7.2855 12.6045 7.39125 12.5437 7.51275 12.4222C7.63425 12.3008 7.749 12.1612 7.857 12.0037C7.965 11.8463 8.064 11.691 8.154 11.538C8.244 11.385 8.3025 11.277 8.3295 11.214C8.3655 11.187 8.433 11.1308 8.532 11.0452C8.631 10.9597 8.73 10.8697 8.829 10.7752C8.928 10.6807 9.018 10.593 9.099 10.512C9.18 10.431 9.2205 10.377 9.2205 10.35C9.2205 10.278 9.216 10.215 9.207 10.161C9.198 10.107 9.1665 10.08 9.1125 10.08H8.856C8.793 10.08 8.73675 10.0957 8.68725 10.1272C8.63775 10.1587 8.5905 10.197 8.5455 10.242C8.5095 10.296 8.46225 10.3455 8.40375 10.3905C8.34525 10.4355 8.28 10.458 8.208 10.458C8.145 10.458 8.08875 10.4377 8.03925 10.3972C7.98975 10.3567 7.947 10.3072 7.911 10.2487C7.875 10.1903 7.848 10.1318 7.83 10.0732C7.812 10.0147 7.803 9.9675 7.803 9.9315C7.803 9.8325 7.82325 9.74475 7.86375 9.66825C7.90425 9.59175 7.9335 9.5175 7.9515 9.4455C7.9875 9.3465 8.02125 9.2655 8.05275 9.2025C8.08425 9.1395 8.1 9.0585 8.1 8.9595V8.811C8.118 8.739 8.136 8.6715 8.154 8.6085C8.172 8.5545 8.1855 8.49825 8.1945 8.43975C8.2035 8.38125 8.208 8.3295 8.208 8.2845V8.1765C8.208 7.9875 8.22825 7.8165 8.26875 7.6635C8.30925 7.5105 8.3295 7.344 8.3295 7.164C8.3295 7.11 8.325 7.0605 8.316 7.0155C8.298 6.9165 8.262 6.84 8.208 6.786L8.3295 6.408C8.3295 6.282 8.28 6.16275 8.181 6.05025C8.082 5.93775 7.956 5.8815 7.803 5.8815C7.749 5.8815 7.6275 5.94225 7.4385 6.06375C7.2495 6.18525 7.05375 6.32475 6.85125 6.48225C6.64875 6.63975 6.46875 6.79725 6.31125 6.95475C6.15375 7.11225 6.075 7.2315 6.075 7.3125V7.5285C6.075 7.6095 6.093 7.677 6.129 7.731C6.147 7.767 6.165 7.7895 6.183 7.7985C6.372 7.7985 6.48675 7.7805 6.52725 7.7445C6.56775 7.7085 6.615 7.6905 6.669 7.6905C6.804 7.6905 6.90075 7.73325 6.95925 7.81875C7.01775 7.90425 7.047 7.983 7.047 8.055C7.047 8.154 7.02675 8.26875 6.98625 8.39925C6.94575 8.52975 6.903 8.6625 6.858 8.7975C6.813 8.9325 6.77025 9.0585 6.72975 9.1755C6.68925 9.2925 6.669 9.3825 6.669 9.4455V9.567C6.669 9.693 6.651 9.7965 6.615 9.8775C6.579 9.9585 6.561 10.0665 6.561 10.2015V10.836L6.453 11.214V11.4705C6.507 11.4705 6.5385 11.4975 6.5475 11.5515C6.5565 11.6055 6.561 11.6685 6.561 11.7405V11.9565C6.561 12.0285 6.58125 12.1005 6.62175 12.1725C6.66225 12.2445 6.714 12.3142 6.777 12.3818C6.84 12.4492 6.90975 12.5033 6.98625 12.5437C7.06275 12.5842 7.1325 12.6045 7.1955 12.6045Z" fill="#7C92A5"/>
</svg>
