<svg width="17" height="17" viewBox="0 0 17 17" fill="none" xmlns="http://www.w3.org/2000/svg">
<path d="M8.47178 15.5599H2.11793C1.72822 15.5599 1.41196 15.2436 1.41196 14.8539V2.14628C1.41196 1.75658 1.72826 1.44032 2.11793 1.44032H8.47178C8.86218 1.44032 9.17774 1.12475 9.17774 0.734352C9.17774 0.343949 8.86218 0.0283203 8.47178 0.0283203H2.11793C0.95024 0.0283203 0 0.978594 0 2.14628V14.8539C0 16.0216 0.95024 16.9718 2.11793 16.9718H8.47178C8.86218 16.9718 9.17774 16.6563 9.17774 16.2659C9.17774 15.8755 8.86218 15.5599 8.47178 15.5599Z" fill="#919EAB"/>
<path d="M16.7897 7.99749L12.4974 3.7616C12.2206 3.48767 11.773 3.49122 11.4991 3.76867C11.2252 4.04611 11.228 4.493 11.5062 4.76692L14.5736 7.79415H6.35391C5.96351 7.79415 5.64795 8.10971 5.64795 8.50011C5.64795 8.89052 5.96351 9.20611 6.35391 9.20611H14.5736L11.5062 12.2333C11.228 12.5073 11.2259 12.9541 11.4991 13.2316C11.6375 13.3714 11.8196 13.442 12.0018 13.442C12.1811 13.442 12.3604 13.3742 12.4974 13.2386L16.7897 9.00274C16.9239 8.87003 17.0001 8.68927 17.0001 8.50008C17.0001 8.31096 16.9246 8.13093 16.7897 7.99749Z" fill="#919EAB"/>
</svg>
