<svg width="18" height="19" viewBox="0 0 18 19" fill="none" xmlns="http://www.w3.org/2000/svg">
<path d="M5.81836 8.00195C5.63086 7.81445 5.40234 7.7207 5.13281 7.7207C4.86328 7.7207 4.63477 7.81445 4.44727 8.00195C4.25977 8.18945 4.16602 8.41797 4.16602 8.6875C4.16602 8.95703 4.25977 9.18555 4.44727 9.37305C4.63477 9.56055 4.86328 9.6543 5.13281 9.6543C5.40234 9.6543 5.63086 9.56055 5.81836 9.37305C6.00586 9.18555 6.09961 8.95703 6.09961 8.6875C6.09961 8.41797 6.00586 8.18945 5.81836 8.00195ZM13.5527 8.00195C13.3652 7.81445 13.1367 7.7207 12.8672 7.7207C12.5977 7.7207 12.3691 7.81445 12.1816 8.00195C11.9941 8.18945 11.9004 8.41797 11.9004 8.6875C11.9004 8.95703 11.9941 9.18555 12.1816 9.37305C12.3691 9.56055 12.5977 9.6543 12.8672 9.6543C13.1367 9.6543 13.3652 9.56055 13.5527 9.37305C13.7402 9.18555 13.834 8.95703 13.834 8.6875C13.834 8.41797 13.7402 8.18945 13.5527 8.00195ZM9.68555 8.00195C9.49805 7.81445 9.26953 7.7207 9 7.7207C8.73047 7.7207 8.50195 7.81445 8.31445 8.00195C8.12695 8.18945 8.0332 8.41797 8.0332 8.6875C8.0332 8.95703 8.12695 9.18555 8.31445 9.37305C8.50195 9.56055 8.73047 9.6543 9 9.6543C9.26953 9.6543 9.49805 9.56055 9.68555 9.37305C9.87305 9.18555 9.9668 8.95703 9.9668 8.6875C9.9668 8.41797 9.87305 8.18945 9.68555 8.00195ZM17.2793 5.38281C16.8223 4.375 16.1777 3.47852 15.3457 2.69336C14.5137 1.91992 13.5586 1.32227 12.4805 0.900391C11.3789 0.466797 10.2188 0.25 9 0.25C7.78125 0.25 6.62109 0.466797 5.51953 0.900391C4.44141 1.32227 3.48633 1.91992 2.6543 2.69336C1.82227 3.47852 1.17773 4.375 0.720703 5.38281C0.240234 6.4375 0 7.5332 0 8.66992C0 9.70117 0.193359 10.6973 0.580078 11.6582C0.966797 12.6074 1.51758 13.4688 2.23242 14.2422L2.63672 17.6875C2.67188 17.9102 2.78906 18.0742 2.98828 18.1797C3.07031 18.2266 3.16406 18.25 3.26953 18.25C3.375 18.25 3.48047 18.2207 3.58594 18.1621L6.1875 16.6855C7.10156 16.9668 8.03906 17.1074 9 17.1074C10.207 17.1074 11.3672 16.8906 12.4805 16.457C13.5586 16.0234 14.5137 15.4199 15.3457 14.6465C16.1777 13.873 16.8223 12.9824 17.2793 11.9746C17.7598 10.9316 18 9.83008 18 8.66992C18 7.5332 17.7598 6.4375 17.2793 5.38281ZM16.1367 11.4473C15.75 12.3027 15.1992 13.0645 14.4844 13.7324C13.7695 14.3887 12.9492 14.8984 12.0234 15.2617C11.0625 15.6484 10.0547 15.8418 9 15.8418C8.07422 15.8418 7.18359 15.6953 6.32812 15.4023C6.14062 15.3438 5.96484 15.3613 5.80078 15.4551L3.7793 16.5977L3.46289 13.873C3.45117 13.7324 3.39258 13.6094 3.28711 13.5039C2.63086 12.8477 2.12695 12.1035 1.77539 11.2715C1.43555 10.4395 1.26562 9.57227 1.26562 8.66992C1.26562 7.70898 1.46484 6.78906 1.86328 5.91016C2.25 5.05469 2.80078 4.29297 3.51562 3.625C4.23047 2.95703 5.05078 2.44141 5.97656 2.07812C6.9375 1.70312 7.94531 1.51562 9 1.51562C10.0547 1.51562 11.0625 1.70312 12.0234 2.07812C12.9492 2.45313 13.7695 2.97461 14.4844 3.64258C15.1992 4.29883 15.75 5.05469 16.1367 5.91016C16.5352 6.78906 16.7344 7.71484 16.7344 8.6875C16.7344 9.64844 16.5352 10.5684 16.1367 11.4473Z" fill="#C69500"/>
</svg>
