<svg width="24" height="5" viewBox="0 0 24 5" fill="none" xmlns="http://www.w3.org/2000/svg">
<path fill-rule="evenodd" clip-rule="evenodd" d="M2.3584 4.7168C3.66211 4.7168 4.7168 3.66211 4.7168 2.3584C4.7168 1.04004 3.66211 0 2.3584 0C1.04004 0 0 1.04004 0 2.3584C0 3.66211 1.04004 4.7168 2.3584 4.7168ZM11.6934 4.7168C12.9971 4.7168 14.0518 3.66211 14.0518 2.3584C14.0518 1.04004 12.9971 0 11.6934 0C10.375 0 9.33496 1.04004 9.33496 2.3584C9.33496 3.66211 10.375 4.7168 11.6934 4.7168ZM23.3867 2.3584C23.3867 3.66211 22.332 4.7168 21.0283 4.7168C19.71 4.7168 18.6699 3.66211 18.6699 2.3584C18.6699 1.04004 19.71 0 21.0283 0C22.332 0 23.3867 1.04004 23.3867 2.3584Z" fill="#637381"/>
</svg>
