<svg width="66" height="61" viewBox="0 0 66 61" fill="none" xmlns="http://www.w3.org/2000/svg">
<path d="M25.3333 60.2C20.9239 60.2 17.3333 56.6117 17.3333 52.2C17.3333 51.3168 18.05 50.6 18.9333 50.6C19.8165 50.6 20.5333 51.3168 20.5333 52.2C20.5333 54.8476 22.6879 57 25.3333 57C27.9786 57 30.1333 54.8476 30.1333 52.2C30.1333 51.3168 30.85 50.6 31.7333 50.6C32.6165 50.6 33.3333 51.3168 33.3333 52.2C33.3333 56.6117 29.743 60.2 25.3333 60.2Z" fill="#D4DBE2"/>
<path d="M42.9332 53.8H7.7332C5.67461 53.8 4 52.1254 4 50.0668C4 48.9742 4.47578 47.9398 5.30547 47.2293C5.35898 47.1824 5.41641 47.1398 5.47617 47.1012C8.60781 44.3684 10.4 40.4367 10.4 36.2852V30.3332C10.4 23.3852 15.1082 17.4203 21.8496 15.8266C22.7113 15.6281 23.5734 16.1551 23.7762 17.0172C23.9785 17.877 23.4453 18.7387 22.5879 18.9414C17.2949 20.1914 13.6 24.8762 13.6 30.3332V36.2852C13.6 41.4395 11.3406 46.3164 7.40703 49.6633C7.375 49.6891 7.34727 49.7125 7.31289 49.7359C7.25547 49.8086 7.2 49.9195 7.2 50.0668C7.2 50.3566 7.44336 50.6 7.7332 50.6H42.9332C43.2234 50.6 43.4668 50.3566 43.4668 50.0668C43.4668 49.9172 43.4113 49.8086 43.3516 49.7359C43.3195 49.7125 43.2895 49.6891 43.2598 49.6633C41.3484 48.0336 39.8398 46.0668 38.7777 43.816C38.398 43.018 38.7391 42.0645 39.5391 41.6848C40.3457 41.3051 41.2906 41.6508 41.6684 42.4484C42.5129 44.232 43.6969 45.798 45.1945 47.1078C45.25 47.1461 45.3078 47.1867 45.3566 47.2293C46.191 47.9398 46.6668 48.9742 46.6668 50.0668C46.6668 52.1254 44.9922 53.8 42.9332 53.8Z" fill="#D4DBE2"/>
<path fill-rule="evenodd" clip-rule="evenodd" d="M27.4668 22.8668C27.4668 30.5125 33.6875 36.7332 41.3332 36.7332C48.9793 36.7332 55.2 30.5125 55.2 22.8668C55.2 15.2207 48.9793 9 41.3332 9C33.6875 9 27.4668 15.2207 27.4668 22.8668ZM30.6668 22.8668C30.6668 16.9852 35.4516 12.2 41.3332 12.2C47.2148 12.2 52 16.9852 52 22.8668C52 28.7484 47.2148 33.5332 41.3332 33.5332C35.4516 33.5332 30.6668 28.7484 30.6668 22.8668Z" fill="#D4DBE2"/>
<path d="M8.94474 5.18016C8.5395 5.38234 8.23123 5.73731 8.08782 6.16689C7.94442 6.59646 7.97763 7.06543 8.18016 7.4705L9.88682 10.8838C10.1594 11.4295 10.7024 11.7884 11.3112 11.8252C11.9201 11.862 12.5024 11.5712 12.8387 11.0623C13.175 10.5534 13.2143 9.90379 12.9418 9.35808L11.2351 5.94474C11.0329 5.5395 10.6779 5.23123 10.2484 5.08782C9.81878 4.94442 9.34982 4.97763 8.94474 5.18016Z" fill="#D4DBE2"/>
<path d="M5.8836 15.7135L2.47027 14.0068C1.92456 13.7343 1.27489 13.7736 0.766003 14.1099C0.257111 14.4462 -0.0336966 15.0285 0.00312315 15.6373C0.0399428 16.2462 0.398797 16.7892 0.944508 17.0618L4.35784 18.7684C5.20144 19.1897 6.22686 18.8474 6.64819 18.0038C7.06952 17.1602 6.7272 16.1348 5.8836 15.7135Z" fill="#D4DBE2"/>
<path d="M53.887 0.944873L52.1803 4.35821C51.759 5.2018 52.1013 6.22723 52.9449 6.64855C53.7885 7.06988 54.8139 6.72756 55.2352 5.88397L56.9419 2.47063C57.3632 1.62704 57.0209 0.601613 56.1773 0.180286C55.3337 -0.241041 54.3083 0.101276 53.887 0.944873Z" fill="#D4DBE2"/>
<path d="M63.3582 8.18029L59.9449 9.88695C59.1013 10.3083 58.759 11.3337 59.1803 12.1773C59.6016 13.0209 60.627 13.3632 61.4706 12.9419L64.884 11.2352C65.7276 10.8139 66.0699 9.78847 65.6486 8.94487C65.2272 8.10128 64.2018 7.75896 63.3582 8.18029Z" fill="#D4DBE2"/>
</svg>
