<svg width="22" height="21" viewBox="0 0 22 21" fill="none" xmlns="http://www.w3.org/2000/svg">
<path fill-rule="evenodd" clip-rule="evenodd" d="M18 0.25H4C1.92893 0.25 0.25 1.92893 0.25 4V17C0.25 19.0711 1.92893 20.75 4 20.75H18C20.0711 20.75 21.75 19.0711 21.75 17V4C21.75 1.92893 20.0711 0.25 18 0.25ZM4 1.75H18C19.2426 1.75 20.25 2.75736 20.25 4V17C20.25 18.2426 19.2426 19.25 18 19.25H4C2.75736 19.25 1.75 18.2426 1.75 17V4C1.75 2.75736 2.75736 1.75 4 1.75ZM16.5755 6.43158C16.2615 6.16136 15.788 6.19678 15.5178 6.51071L9.793 13.16L7.52048 10.971L7.43504 10.8999C7.13747 10.6875 6.72132 10.7194 6.46 10.9905C6.17255 11.2887 6.18128 11.7635 6.47952 12.051L9.32327 14.792L9.40448 14.86C9.71488 15.0849 10.1545 15.0405 10.4122 14.7412L16.6546 7.48929L16.7207 7.39999C16.9161 7.09094 16.8609 6.67724 16.5755 6.43158Z" fill="#979797"/>
</svg>
