<svg width="20" height="20" viewBox="0 0 20 20" fill="none" xmlns="http://www.w3.org/2000/svg">
<path d="M3.84615 16.2731H4.49615V16.9231V18.7681C6.38452 17.4765 7.41684 16.7675 7.60296 16.6345C7.98734 16.36 8.48392 16.2731 8.99039 16.2731H16.3462C17.2189 16.2731 17.9226 15.9992 18.4992 15.462C19.0727 14.9275 19.35 14.2903 19.35 13.5096V3.46154C19.35 2.68039 19.0721 2.03214 18.4935 1.4798C17.9161 0.92862 17.2143 0.65 16.3462 0.65H3.65385C2.78574 0.65 2.08392 0.92862 1.5065 1.4798C0.92786 2.03214 0.65 2.68039 0.65 3.46154V13.5096C0.65 14.2903 0.927277 14.9275 1.50081 15.462C2.07741 15.9992 2.78109 16.2731 3.65385 16.2731H3.84615Z" stroke="#979797" stroke-width="1.3"/>
</svg>
