<svg width="77" height="71" viewBox="0 0 77 71" fill="none" xmlns="http://www.w3.org/2000/svg">
<path fill-rule="evenodd" clip-rule="evenodd" d="M20.6901 7.34507C20.6901 9.18939 19.1894 10.6901 17.3451 10.6901C15.5007 10.6901 14 9.18939 14 7.34507C14 5.50074 15.5007 4 17.3451 4C19.1894 4 20.6901 5.50074 20.6901 7.34507ZM18.7787 7.34507C18.7787 6.55444 18.1357 5.91147 17.3451 5.91147C16.5547 5.91147 15.9115 6.55444 15.9115 7.34507C15.9115 8.1357 16.5544 8.77867 17.3451 8.77867C18.1357 8.77867 18.7787 8.1357 18.7787 7.34507Z" fill="#B4C1CC"/>
<path fill-rule="evenodd" clip-rule="evenodd" d="M73.3451 28.6901C71.5007 28.6901 70 27.1894 70 25.3451C70 23.5007 71.5007 22 73.3451 22C75.1894 22 76.6901 23.5007 76.6901 25.3451C76.6901 27.1894 75.1894 28.6901 73.3451 28.6901ZM74.7787 25.3451C74.7787 24.5544 74.1357 23.9115 73.3451 23.9115C72.5547 23.9115 71.9115 24.5544 71.9115 25.3451C71.9115 26.1357 72.5544 26.7787 73.3451 26.7787C74.1357 26.7787 74.7787 26.1357 74.7787 25.3451Z" fill="#B4C1CC"/>
<path d="M69.0821 15.1643C69.6798 15.1643 70.1643 14.6798 70.1643 14.0821C70.1643 13.4845 69.6798 13 69.0821 13C68.4845 13 68 13.4845 68 14.0821C68 14.6798 68.4845 15.1643 69.0821 15.1643Z" fill="#B4C1CC"/>
<path d="M24.3961 15.8645C24.9937 15.8645 25.4782 15.38 25.4782 14.7823C25.4782 14.1847 24.9937 13.7002 24.3961 13.7002C23.7985 13.7002 23.314 14.1847 23.314 14.7823C23.314 15.38 23.7985 15.8645 24.3961 15.8645Z" fill="#B4C1CC"/>
<path d="M64.2799 5.14268C64.4665 5.32929 64.7112 5.42271 64.9556 5.42271C65.2 5.42271 65.4447 5.32929 65.6313 5.14268L66.7113 4.0627L67.7913 5.14268C67.9779 5.32929 68.2225 5.42271 68.467 5.42271C68.7114 5.42271 68.9561 5.32929 69.1427 5.14268C69.5159 4.76947 69.5159 4.16449 69.1427 3.79127L68.0627 2.7113L69.1427 1.63132C69.5159 1.2581 69.5159 0.653124 69.1427 0.27991C68.7695 -0.0933035 68.1645 -0.0933035 67.7913 0.27991L66.7113 1.35989L65.6313 0.27991C65.2581 -0.0933035 64.6531 -0.0933035 64.2799 0.27991C63.9067 0.653124 63.9067 1.2581 64.2799 1.63132L65.3599 2.7113L64.2799 3.79127C63.9067 4.16449 63.9067 4.76923 64.2799 5.14268Z" fill="#B4C1CC"/>
<path d="M5.27991 38.1427C5.46652 38.3293 5.71119 38.4227 5.95561 38.4227C6.20004 38.4227 6.44471 38.3293 6.63132 38.1427L7.7113 37.0627L8.79127 38.1427C8.97788 38.3293 9.22255 38.4227 9.46698 38.4227C9.71141 38.4227 9.95607 38.3293 10.1427 38.1427C10.5159 37.7695 10.5159 37.1645 10.1427 36.7913L9.0627 35.7113L10.1427 34.6313C10.5159 34.2581 10.5159 33.6531 10.1427 33.2799C9.76947 32.9067 9.16449 32.9067 8.79127 33.2799L7.7113 34.3599L6.63132 33.2799C6.2581 32.9067 5.65312 32.9067 5.27991 33.2799C4.9067 33.6531 4.9067 34.2581 5.27991 34.6313L6.35989 35.7113L5.27991 36.7913C4.9067 37.1645 4.9067 37.7692 5.27991 38.1427Z" fill="#B4C1CC"/>
<path d="M48.2895 28.1624C48.8173 28.1624 49.2452 27.7345 49.2452 27.2067C49.2452 26.6789 48.8173 26.251 48.2895 26.251C47.7616 26.251 47.3337 26.6789 47.3337 27.2067C47.3337 27.7345 47.7616 28.1624 48.2895 28.1624Z" fill="#B4C1CC"/>
<path d="M38.7321 28.1624C39.2599 28.1624 39.6878 27.7345 39.6878 27.2067C39.6878 26.6789 39.2599 26.251 38.7321 26.251C38.2043 26.251 37.7764 26.6789 37.7764 27.2067C37.7764 27.7345 38.2043 28.1624 38.7321 28.1624Z" fill="#B4C1CC"/>
<path fill-rule="evenodd" clip-rule="evenodd" d="M68.4572 38.6083C68.5747 40.3097 68.6765 41.7797 69.8888 42.6897C73.092 45.0922 72.838 47.6476 72.4019 48.9574C71.3239 52.1905 66.8477 54.9224 62.6262 54.9224C62.1398 54.9224 61.6633 54.882 61.1926 54.8228V59.2232C61.1926 59.7515 60.7652 60.179 60.2369 60.179H25.8305C25.3022 60.179 24.8748 59.7515 24.8748 59.2232V51.3618C24.8748 47.4512 27.1372 43.8952 30.6381 42.3039L38.255 38.8422V37.7195C38.255 37.7153 38.2562 37.7115 38.2573 37.7077C38.258 37.7055 38.2586 37.7033 38.2591 37.701L38.2595 37.698L38.2596 37.6965C35.0251 35.8357 32.6009 32.7709 31.6012 29.1188C30.9573 29.1291 30.3647 28.9341 29.7738 28.5356C28.8387 27.9046 28.2581 26.917 28.2227 25.8942C28.19 24.9779 28.5223 24.1098 29.1579 23.4499C29.5834 23.0093 30.1072 22.7003 30.682 22.5446C30.682 22.3762 30.6768 21.9181 30.674 21.6708L30.674 21.6704L30.6739 21.6674C30.6729 21.5738 30.6722 21.5112 30.6722 21.5074C30.6546 21.4326 30.6309 19.7593 30.6216 18.8662L30.6094 17.288C30.5922 12.6737 32.8336 9.13801 36.9239 7.26788C36.788 6.67557 36.8484 6.0639 37.1287 5.47851C38.3738 2.88035 42.6344 2.30452 47.4881 3.81721C47.8857 3.11809 48.5029 2.5824 49.2694 2.31169C50.114 2.01493 51.0212 2.06344 51.8267 2.45075C52.6321 2.83639 53.2388 3.51304 53.5365 4.35576C53.8062 5.1213 53.7754 5.93798 53.4796 6.6868C57.7006 9.52055 59.9225 13.2013 58.679 15.7995H58.6781C58.3178 16.5526 57.7709 17.0603 57.0541 17.3076C56.8505 17.3781 56.635 17.4182 56.4137 17.4445C56.4137 17.4445 56.3788 21.5898 56.331 21.7045C56.333 21.7611 56.3385 22.2514 56.341 22.4768L56.3418 22.5467C56.9635 22.7173 57.5291 23.0654 57.9649 23.5574C58.5985 24.2752 58.8953 25.2354 58.7768 26.1931C58.6592 27.1488 58.059 28.0486 57.1723 28.602C56.5946 28.9621 56.0094 29.1329 55.3739 29.1162C54.2456 33.0421 51.4647 36.2985 47.8069 38.0463C47.807 38.0506 47.8082 38.0546 47.8094 38.0586L47.8106 38.063C47.8113 38.0657 47.8119 38.0685 47.8119 38.0714V38.8424L51.5376 40.5353C52.1296 38.1906 53.4005 36.0228 55.2002 34.4334C57.3654 32.5229 60.0431 31.6577 62.7443 31.9927C68.0443 32.6555 68.2732 35.9554 68.4571 38.6079L68.4572 38.6083ZM50.999 4.17393C50.6547 4.0105 50.2664 3.98828 49.9042 4.11516C49.6873 4.19138 49.509 4.32757 49.3547 4.4898C49.764 4.65825 50.1747 4.83817 50.5864 5.03529C51.0021 5.23432 51.403 5.44386 51.7942 5.65914C51.8747 5.0599 51.5739 4.4499 50.999 4.17393ZM38.8516 6.30379C39.282 5.40683 40.625 4.885 42.5085 4.885C44.4768 4.885 47.0361 5.45438 49.7613 6.75919C55.0943 9.31458 57.8318 13.1394 56.9537 14.9744C56.7783 15.3412 56.5812 15.4485 56.4292 15.5018C55.3217 15.8809 52.7017 14.5884 49.9156 13.214L49.8782 13.1956L49.8422 13.1778L49.8419 13.1777C49.1649 12.8433 48.4557 12.493 47.7146 12.1381C46.978 11.7852 46.2481 11.4461 45.54 11.1172L45.5392 11.1168L45.5389 11.1166L45.5296 11.1123C42.443 9.67776 39.2528 8.19375 38.8003 6.9329C38.7257 6.72455 38.7405 6.53603 38.8516 6.30379ZM44.7232 12.8455C41.7382 11.4578 39.2358 10.2918 37.8952 8.92297C35.3756 10.0233 32.5017 12.3552 32.5197 17.2806L32.5319 18.8478L32.5343 19.1052C32.5383 19.5293 32.5423 19.9415 32.5431 20.3253C34.5451 20.2004 36.3455 19.4377 37.5784 18.1685C37.7932 17.9463 38.1021 17.8409 38.4091 17.8904C38.7143 17.937 38.9785 18.1293 39.1176 18.4055C40.3385 20.835 42.611 22.5718 45.3513 23.1701C48.408 23.8384 51.642 23.0236 54.5018 20.8732V17.2594C53.0029 16.8677 51.2014 15.9806 49.0323 14.9092L48.9491 14.8682C48.2928 14.5446 47.6057 14.2058 46.8894 13.8629C46.1558 13.511 45.4288 13.1731 44.7232 12.8455ZM33.2582 27.8357C33.2033 27.5679 33.036 27.3364 32.799 27.1992C32.562 27.063 32.2771 27.0367 32.017 27.1218C31.6473 27.2477 31.3056 27.2647 30.8428 26.951C30.4192 26.6654 30.1466 26.2342 30.1315 25.8263C30.1174 25.4326 30.2603 25.0601 30.5329 24.7772C30.8056 24.4952 31.1714 24.3394 31.5642 24.3394C31.8227 24.3394 32.0803 24.2293 32.2604 24.0446C32.5259 23.7717 32.6078 23.5376 32.5913 22.2332C34.6359 22.1185 36.5328 21.4517 38.0192 20.3225C39.5825 22.7128 42.0474 24.4059 44.9435 25.0376C45.7798 25.2206 46.6244 25.3112 47.4709 25.3112C49.8481 25.3105 52.2319 24.5867 54.4509 23.2088C54.4872 23.6456 54.5744 23.8546 54.7677 24.0501C54.9469 24.2321 55.2016 24.3394 55.4575 24.3394C55.8682 24.3394 56.2601 24.5158 56.5317 24.8237C56.808 25.1356 56.9312 25.5386 56.8799 25.9596C56.8314 26.3479 56.5626 26.7288 56.1612 26.9799C55.7578 27.231 55.4164 27.2692 54.9842 27.117C54.7266 27.0227 54.4401 27.0499 54.2012 27.1823C53.9613 27.3158 53.7905 27.5462 53.7317 27.8142C52.801 32.0871 49.6428 35.5777 45.4885 36.9236L45.0665 37.0617C43.8783 37.4471 42.6641 37.4612 41.5571 37.1037C37.3313 35.744 34.1513 32.1925 33.2582 27.8357ZM43.2131 39.2728C42.4488 39.2728 41.6954 39.1571 40.9712 38.9237C40.789 38.8651 40.6143 38.792 40.4396 38.7189C40.3488 38.6808 40.2579 38.6428 40.166 38.6069V39.1533C40.166 40.7343 41.4522 42.0205 43.0332 42.0205C44.6142 42.0205 45.9004 40.7343 45.9004 39.1533V38.8002L45.6567 38.8797C44.8465 39.1421 44.0243 39.2728 43.2131 39.2728ZM59.2804 58.268H53.546V53.4893C53.546 52.961 53.1186 52.5336 52.5903 52.5336C52.062 52.5336 51.6346 52.961 51.6346 53.4893V58.268H33.4756V53.4893C33.4756 52.961 33.0482 52.5336 32.5199 52.5336C31.9916 52.5336 31.5642 52.961 31.5642 53.4893V58.268H26.7855V51.3623C26.7855 48.1993 28.6083 45.3264 31.4289 44.044L38.5649 40.801C39.2394 42.6228 40.9796 43.932 43.033 43.932C45.0866 43.932 46.8265 42.6228 47.501 40.8007L51.2097 42.4859C51.183 42.808 51.1567 43.1303 51.1567 43.4541C51.1567 48.6148 54.5835 52.9871 59.2804 54.4223V58.268ZM62.6255 53.0114C65.9799 53.0114 69.7749 50.791 70.5877 48.3532C71.0742 46.8935 70.4534 45.5018 68.7427 44.2184C66.8293 42.7839 66.6809 40.6354 66.5502 38.7397L66.5502 38.7391C66.3739 36.195 66.2465 34.3567 62.507 33.8891C62.2074 33.8518 61.9077 33.8332 61.6091 33.8332C59.7686 33.8332 57.9701 34.5388 56.4656 35.867C54.3383 37.7441 53.0682 40.5804 53.0682 43.4541C53.0682 48.7238 57.3558 53.0114 62.6255 53.0114Z" fill="#B4C1CC"/>
<path fill-rule="evenodd" clip-rule="evenodd" d="M63.6204 47.2772C63.6204 45.7177 64.8889 44.4492 66.4484 44.4492C68.0081 44.4492 69.2764 45.7177 69.2764 47.2772C69.2764 48.8358 68.0079 50.1043 66.4484 50.1043C64.8889 50.1043 63.6204 48.8358 63.6204 47.2772ZM65.5318 47.2772C65.5318 47.7821 65.9435 48.1928 66.4484 48.1928C66.9532 48.1928 67.3649 47.7821 67.3649 47.2772C67.3649 46.7724 66.9532 46.3607 66.4484 46.3607C65.9435 46.3607 65.5318 46.7724 65.5318 47.2772Z" fill="#B4C1CC"/>
<path fill-rule="evenodd" clip-rule="evenodd" d="M58.2126 37.7199C58.2126 36.3403 59.3347 35.2185 60.714 35.2185C62.0936 35.2185 63.2154 36.3403 63.2154 37.7199C63.2154 39.0995 62.0936 40.2213 60.714 40.2213C59.3344 40.2213 58.2126 39.0995 58.2126 37.7199ZM60.1241 37.7199C60.1241 38.0448 60.3893 38.3098 60.714 38.3098C61.039 38.3098 61.304 38.0448 61.304 37.7199C61.304 37.3949 61.039 37.13 60.714 37.13C60.3891 37.13 60.1241 37.3949 60.1241 37.7199Z" fill="#B4C1CC"/>
<path fill-rule="evenodd" clip-rule="evenodd" d="M56.4133 40.4749C57.7929 40.4749 58.9147 41.5969 58.9147 42.9762C58.9147 44.3558 57.7929 45.4776 56.4133 45.4776C55.0337 45.4776 53.9119 44.3558 53.9119 42.9762C53.9119 41.5966 55.0337 40.4749 56.4133 40.4749ZM55.8233 42.9762C55.8233 43.3012 56.0885 43.5662 56.4133 43.5662C56.7382 43.5662 57.0032 43.3012 57.0032 42.9762C57.0032 42.6513 56.7382 42.3863 56.4133 42.3863C56.0883 42.3863 55.8233 42.6513 55.8233 42.9762Z" fill="#B4C1CC"/>
<path fill-rule="evenodd" clip-rule="evenodd" d="M57.2568 49.1886C57.2568 47.809 58.3789 46.6873 59.7582 46.6873C61.1378 46.6873 62.2596 47.809 62.2596 49.1886C62.2596 50.5683 61.1378 51.69 59.7582 51.69C58.3786 51.69 57.2568 50.5683 57.2568 49.1886ZM59.1683 49.1886C59.1683 49.5136 59.4335 49.7786 59.7582 49.7786C60.0832 49.7786 60.3482 49.5136 60.3482 49.1886C60.3482 48.8637 60.0832 48.5987 59.7582 48.5987C59.4333 48.5987 59.1683 48.8637 59.1683 49.1886Z" fill="#B4C1CC"/>
<path fill-rule="evenodd" clip-rule="evenodd" d="M5.01423 62.5084C5.19821 62.333 5.37645 62.1529 5.55183 61.9756C6.45165 61.0667 7.47261 60.0362 8.91649 60.0359C10.7708 60.0359 12.3758 61.059 13.2448 62.5593L25.5224 62.0064C26.5146 61.9615 27.474 62.3087 28.1535 62.9593C28.748 63.5267 29.0746 64.2715 29.0746 65.0554C29.0746 65.8394 28.748 66.5841 28.1535 67.1516C27.474 67.802 26.5144 68.1494 25.5224 68.1045L13.2448 67.5516C12.376 69.0518 10.7711 70.0747 8.91649 70.0747C7.8647 70.0747 6.37687 69.4241 5.31385 68.8791C3.54527 67.9719 0.620244 66.2264 0.997281 64.736C1.0876 64.3599 1.42091 63.7298 2.63517 63.7298C3.54885 63.7298 4.24701 63.2417 5.01327 62.5091C5.01351 62.5091 5.01375 62.5091 5.01375 62.5089L5.01403 62.5087L5.01423 62.5084ZM5.61323 64.5236C5.04027 64.9744 4.37484 65.3637 3.57489 65.5409C4.0389 65.9058 4.70242 66.3605 5.52459 66.8233C5.80558 66.435 6.00795 65.9591 6.00986 65.5204C5.99672 65.1947 5.86435 64.8614 5.61323 64.5236ZM25.6081 63.916C26.0812 63.8945 26.5285 64.0495 26.8327 64.3405C26.9839 64.4844 27.1631 64.7259 27.1631 65.0554C27.1631 65.3849 26.9839 65.6267 26.8327 65.7703C26.5285 66.0616 26.0812 66.2164 25.6081 66.1949L13.8741 65.6666C13.8803 65.6164 13.8872 65.5665 13.8941 65.5165C13.915 65.3647 13.936 65.2129 13.936 65.0554C13.936 64.8967 13.9148 64.7438 13.8937 64.5908C13.8869 64.542 13.8802 64.4932 13.8741 64.4442L25.6081 63.916ZM8.91649 68.1637C10.6301 68.1637 12.0245 66.7693 12.0245 65.0557C12.0245 63.342 10.6301 61.9476 8.91625 61.9476C8.30052 61.9476 7.69888 62.5261 7.01291 63.2168C7.58181 63.9176 7.88931 64.6641 7.91942 65.4468C7.92133 65.4908 7.92229 65.5335 7.92229 65.5765C7.92229 66.2833 7.67953 66.9834 7.23918 67.6715C8.06947 68.0218 8.64554 68.1637 8.91649 68.1637Z" fill="#B4C1CC"/>
</svg>
