<svg width="23" height="16" viewBox="0 0 23 16" fill="none" xmlns="http://www.w3.org/2000/svg">
<path fill-rule="evenodd" clip-rule="evenodd" d="M1.425 0H21.375C22.1602 0 22.8 0.639825 22.8 1.425V14.25C22.8 15.0352 22.1602 15.675 21.375 15.675H1.425C0.639825 15.675 0 15.0352 0 14.25V1.425C0 0.639825 0.639825 0 1.425 0ZM1.425 14.25H21.375V1.425H1.425V14.25Z" fill="currentColor"/>
<path fill-rule="evenodd" clip-rule="evenodd" d="M9.97498 4.98748C9.97498 3.809 10.934 2.84998 12.1125 2.84998C13.291 2.84998 14.25 3.809 14.25 4.98748C14.25 6.16595 13.291 7.12498 12.1125 7.12498C10.934 7.12498 9.97498 6.16595 9.97498 4.98748ZM11.4 4.98748C11.4 5.38078 11.7192 5.69998 12.1125 5.69998C12.5058 5.69998 12.825 5.38078 12.825 4.98748C12.825 4.59418 12.5058 4.27498 12.1125 4.27498C11.7192 4.27498 11.4 4.59418 11.4 4.98748Z" fill="currentColor"/>
<path fill-rule="evenodd" clip-rule="evenodd" d="M14.25 10.6875C14.25 9.50901 15.209 8.54999 16.3875 8.54999C17.566 8.54999 18.525 9.50901 18.525 10.6875C18.525 11.866 17.566 12.825 16.3875 12.825C15.209 12.825 14.25 11.866 14.25 10.6875ZM15.675 10.6875C15.675 11.0808 15.9942 11.4 16.3875 11.4C16.7808 11.4 17.1 11.0808 17.1 10.6875C17.1 10.2942 16.7808 9.97499 16.3875 9.97499C15.9942 9.97499 15.675 10.2942 15.675 10.6875Z" fill="currentColor"/>
<path d="M18.2685 3.01527C17.965 2.76305 17.5175 2.80437 17.2639 3.10647L10.1389 11.6565C9.88664 11.9586 9.92797 12.4089 10.2301 12.6611C10.364 12.7708 10.5265 12.825 10.6875 12.825C10.8927 12.825 11.095 12.738 11.2361 12.5685L18.3611 4.01847C18.6119 3.71637 18.5706 3.26607 18.2685 3.01527Z" fill="currentColor"/>
<rect x="3" y="5.84998" width="5" height="1.425" fill="currentColor"/>
<rect x="3" y="3" width="2" height="1.425" fill="currentColor"/>
</svg>
