<svg width="15" height="15" viewBox="0 0 15 15" fill="none" xmlns="http://www.w3.org/2000/svg">
<path d="M7.5 14.672C7.10333 14.672 6.76333 14.536 6.48 14.264C6.208 13.992 6.072 13.6634 6.072 13.278H8.894C8.894 13.686 8.758 14.0204 8.486 14.281C8.22533 14.5417 7.89667 14.672 7.5 14.672ZM11.75 6.90305V10.422L13.178 11.85V12.547H1.822V11.85L3.25 10.422V6.90305C3.25 5.79238 3.52767 4.83472 4.083 4.03005C4.64967 3.20272 5.43733 2.66438 6.446 2.41505V1.92205C6.446 1.62738 6.548 1.37805 6.752 1.17405C6.956 0.958715 7.20533 0.851048 7.5 0.851048C7.79467 0.851048 8.044 0.958715 8.248 1.17405C8.46333 1.37805 8.571 1.62738 8.571 1.92205V2.41505C9.56833 2.66438 10.3503 3.20838 10.917 4.04705C11.4723 4.85172 11.75 5.80371 11.75 6.90305ZM13.144 6.52905C13.0987 5.59972 12.8493 4.73271 12.396 3.92805C11.9653 3.15738 11.3873 2.51138 10.662 1.99005L11.648 0.987048C12.5093 1.64438 13.195 2.44905 13.705 3.40105C14.2377 4.37572 14.5267 5.41838 14.572 6.52905H13.144ZM4.372 1.99005C3.63533 2.51138 3.046 3.15738 2.604 3.92805C2.15067 4.73271 1.90133 5.59972 1.856 6.52905H0.428C0.473333 5.41838 0.762333 4.37572 1.295 3.40105C1.805 2.44905 2.49067 1.64438 3.352 0.987048L4.372 1.99005Z" fill="#D20000"/>
</svg>
