<svg width="23" height="16" viewBox="0 0 23 16" fill="none" xmlns="http://www.w3.org/2000/svg">
<path fill-rule="evenodd" clip-rule="evenodd" d="M1.425 0H21.375C22.1602 0 22.8 0.639825 22.8 1.425V14.25C22.8 15.0352 22.1602 15.675 21.375 15.675H1.425C0.639825 15.675 0 15.0352 0 14.25V1.425C0 0.639825 0.639825 0 1.425 0ZM1.425 14.25H21.375V1.425H1.425V14.25Z" fill="#9EA0A5"/>
<path d="M18.5249 2.50898C18.7961 2.19588 19.2697 2.16191 19.5828 2.43311C19.8675 2.67964 19.9214 3.09351 19.7251 3.40195L19.6587 3.49105L12.3833 11.8906C12.1205 12.194 11.6716 12.2327 11.3622 11.9965L11.2815 11.9252L8.075 8.66201L4.05705 12.5757C3.78727 12.8384 3.37032 12.857 3.07963 12.6353L2.99649 12.5616C2.73378 12.2918 2.71511 11.8749 2.93685 11.5842L3.01057 11.501L7.5638 7.06718C7.83271 6.80532 8.24805 6.78581 8.53877 7.00568L8.62197 7.07882L11.781 10.293L18.5249 2.50898Z" fill="#979797"/>
<path d="M7.63352 2.43433C7.99251 2.43433 8.28352 2.72534 8.28352 3.08433C8.28352 3.41068 8.04301 3.68085 7.72957 3.72728L7.63352 3.73433H3.69327C3.33429 3.73433 3.04327 3.44331 3.04327 3.08433C3.04327 2.75798 3.28378 2.4878 3.59722 2.44137L3.69327 2.43433H7.63352Z" fill="#979797"/>
<path d="M6.24998 4.57568C6.60896 4.57568 6.89998 4.8667 6.89998 5.22568C6.89998 5.55203 6.65947 5.82221 6.34603 5.86864L6.24998 5.87568H3.69327C3.33429 5.87568 3.04327 5.58467 3.04327 5.22568C3.04327 4.89933 3.28378 4.62916 3.59722 4.58273L3.69327 4.57568H6.24998Z" fill="#979797"/>
</svg>
