<svg width="19" height="19" viewBox="0 0 19 19" fill="none" xmlns="http://www.w3.org/2000/svg">
<path fill-rule="evenodd" clip-rule="evenodd" d="M19 18.2366C19 18.0246 18.9293 17.8408 18.7879 17.6853L14.4196 13.3382C15.6637 11.8255 16.2857 10.0938 16.2857 8.14286C16.2857 5.89508 15.4905 3.97601 13.9001 2.3856C12.3097 0.795193 10.3906 0 8.14286 0C5.89508 0 3.97601 0.795193 2.3856 2.3856C0.795193 3.97601 0 5.89508 0 8.14286C0 10.3906 0.795193 12.3097 2.3856 13.9001C3.97601 15.4905 5.89508 16.2857 8.14286 16.2857C10.0938 16.2857 11.8255 15.6637 13.3382 14.4196L17.7065 18.7879C17.8478 18.9293 18.0246 19 18.2366 19C18.4487 19 18.6324 18.9293 18.7879 18.7879C18.9293 18.6324 19 18.4487 19 18.2366ZM12.8186 12.8186C12.2037 13.4336 11.5004 13.9107 10.7087 14.25C9.9029 14.5893 9.04762 14.7589 8.14286 14.7589C7.23809 14.7589 6.38282 14.5893 5.57701 14.25C4.78534 13.9107 4.08203 13.4336 3.46708 12.8186C2.85212 12.2037 2.38207 11.5004 2.05692 10.7087C1.7035 9.9029 1.52679 9.04762 1.52679 8.14286C1.52679 7.23809 1.7035 6.38282 2.05692 5.57701C2.38207 4.78534 2.85212 4.08203 3.46708 3.46708C4.08203 2.85212 4.78534 2.375 5.57701 2.03571C6.38282 1.69643 7.23809 1.52679 8.14286 1.52679C9.04762 1.52679 9.9029 1.69643 10.7087 2.03571C11.5004 2.375 12.2037 2.85212 12.8186 3.46708C13.4336 4.08203 13.9107 4.78534 14.25 5.57701C14.5893 6.38282 14.7589 7.23809 14.7589 8.14286C14.7589 9.04762 14.5893 9.9029 14.25 10.7087C13.9107 11.5004 13.4336 12.2037 12.8186 12.8186Z" fill="currentColor"/>
</svg>
