<svg width="16" height="16" viewBox="0 0 16 16" fill="none" xmlns="http://www.w3.org/2000/svg">
<path fill-rule="evenodd" clip-rule="evenodd" d="M16 14.8688L14.8688 16L10.3432 11.4744L11.4744 10.3432L16 14.8688ZM5.6 9.6C3.3944 9.6 1.6 7.8056 1.6 5.6C1.6 3.3944 3.3944 1.6 5.6 1.6C7.8056 1.6 9.6 3.3944 9.6 5.6C9.6 7.8056 7.8056 9.6 5.6 9.6ZM5.6 0C2.5072 0 0 2.5072 0 5.6C0 8.6928 2.5072 11.2 5.6 11.2C8.6928 11.2 11.2 8.6928 11.2 5.6C11.2 2.5072 8.6928 0 5.6 0Z" fill="currentColor"/>
<mask id="mask0" mask-type="alpha" maskUnits="userSpaceOnUse" x="0" y="0" width="16" height="16">
<path fill-rule="evenodd" clip-rule="evenodd" d="M16 14.8688L14.8688 16L10.3432 11.4744L11.4744 10.3432L16 14.8688ZM5.6 9.6C3.3944 9.6 1.6 7.8056 1.6 5.6C1.6 3.3944 3.3944 1.6 5.6 1.6C7.8056 1.6 9.6 3.3944 9.6 5.6C9.6 7.8056 7.8056 9.6 5.6 9.6ZM5.6 0C2.5072 0 0 2.5072 0 5.6C0 8.6928 2.5072 11.2 5.6 11.2C8.6928 11.2 11.2 8.6928 11.2 5.6C11.2 2.5072 8.6928 0 5.6 0Z" fill="currentColor"/>
</mask>
<g mask="url(#mask0)">
</g>
</svg>
