<svg width="12" height="15" viewBox="0 0 12 15" fill="none" xmlns="http://www.w3.org/2000/svg">
<path d="M5.47522 0.745565L5.3886 0.820813L2.26212 3.96226C1.91152 4.31457 1.91284 4.88443 2.26518 5.23507L2.35754 5.3154C2.71093 5.58303 3.21653 5.55499 3.53795 5.23204L5.12104 3.64028L5.12004 10.5785C5.12004 11.0755 5.52297 11.4785 6.02004 11.4785L6.13294 11.4715C6.57671 11.4159 6.92004 11.0373 6.92004 10.5785L6.92104 3.64128L8.50211 5.23209C8.85276 5.58441 9.4226 5.58576 9.77491 5.23512C10.1272 4.88451 10.1286 4.31464 9.77797 3.96232L6.65091 0.820333C6.33471 0.50328 5.82823 0.476543 5.47522 0.745565Z" fill="white"/>
<rect y="13" width="12" height="1.5" rx="0.75" fill="white"/>
</svg>
