<svg width="39" height="37" viewBox="0 0 39 37" fill="none" xmlns="http://www.w3.org/2000/svg">
<path fill-rule="evenodd" clip-rule="evenodd" d="M29.6069 26.6443L29.7437 26.1995C29.8264 25.5979 29.9547 25.0163 30.4394 24.5914L30.4908 24.2065L30.5086 24.1737C30.5118 24.0607 30.5136 23.9473 30.5154 23.8337L30.5154 23.8332C30.5257 23.1986 30.5361 22.556 30.7811 21.9461L30.7759 21.9256V19.6446L30.7759 19.6013C30.5498 19.1779 30.511 18.7165 30.4722 18.2542C30.447 17.9543 30.4218 17.654 30.3453 17.3636C30.5394 17.3535 30.7183 17.4682 30.7901 17.6488L32.1901 17.3722V16.5653C32.5176 17.0495 32.7598 17.5565 32.5812 18.163C32.7596 18.482 32.6964 18.8051 32.6332 19.1288C32.6219 19.1867 32.6106 19.2446 32.6006 19.3025C32.8943 22.0881 32.9071 24.8036 31.3332 27.2727L31.3355 27.2648L31.329 27.2858L31.1807 27.6565C31.1319 27.7082 31.0923 27.768 31.0639 27.8333L31.0556 27.8482L31.0556 27.8482C30.9787 27.9883 30.9044 28.1237 30.8301 28.2723L30.7787 28.4149C30.8174 28.667 30.6897 28.9154 30.4622 29.0308C30.2997 29.0295 30.1462 29.1053 30.0484 29.2352C29.9803 29.3256 29.9448 29.4347 29.9451 29.5453C29.9454 29.4357 29.9809 29.3276 30.0484 29.238C30.1462 29.1082 30.2997 29.0324 30.4622 29.0336C30.4447 29.3331 30.2491 29.5928 29.9661 29.6922L29.9657 29.6908C29.5071 31.1633 28.3439 31.9789 27.2065 32.7766C26.9286 32.9715 26.6521 33.1653 26.3879 33.3674C22.6557 36.2186 18.319 36.5893 13.8169 36.059C10.4383 35.6627 7.56711 34.143 5.12078 31.9048C3.15916 30.1085 1.591 27.9559 0.855386 25.3128C0.842424 25.2091 0.845775 25.0997 0.849133 24.99C0.858333 24.6896 0.867592 24.3873 0.541754 24.1951C0.396958 24.0038 0.375845 23.746 0.487582 23.5336C0.666095 22.502 0.51443 21.4404 0.0541992 20.5V18.5041C0.429433 17.9081 0.614401 17.212 0.584522 16.5083C0.584522 16.4758 0.583848 16.442 0.58316 16.4075C0.577216 16.1098 0.570283 15.7626 0.989393 15.7499C1.42967 15.7364 1.42759 16.1022 1.42584 16.4092L1.42563 16.4655V18.7208C1.42563 19.8271 1.42563 20.9334 2.08996 21.8999C2.11134 22.0011 2.13201 22.1023 2.15268 22.2036L2.1527 22.2037C2.17337 22.3048 2.19403 22.406 2.21541 22.5072C1.89893 22.875 1.90748 23.1687 2.40929 23.3455L2.5547 23.9157C2.30665 24.5658 2.41214 25.0761 3.12494 25.3413C5.90201 30.9696 10.5723 33.5414 16.7024 33.9519C20.1095 34.18 23.1489 33.4444 25.8946 31.4144C26.5657 30.9169 27.0669 30.2862 27.5666 29.6573C27.6741 29.522 27.7815 29.3869 27.8905 29.2532L27.9304 29.2104C28.0141 28.8986 28.2196 28.6336 28.5006 28.4748C28.5106 28.4741 28.5204 28.4733 28.53 28.4723C28.567 28.123 28.7602 27.8096 29.0547 27.6196L29.0538 27.5966C29.0773 27.5462 29.0998 27.4948 29.1225 27.4431L29.1225 27.443L29.1226 27.4428L29.1226 27.4428L29.1226 27.4427C29.1384 27.4067 29.1543 27.3705 29.1707 27.3343C29.177 27.3333 29.1833 27.3323 29.1896 27.3312C29.1556 27.0342 29.327 26.7513 29.6069 26.6443Z" fill="#df5525"/>
<path d="M12.9644 17.412C13.1041 18.678 13.0813 19.9525 13.5973 21.1785C14.7948 24.0297 18.892 25.4553 21.5265 23.8501C22.8609 23.0318 23.3456 21.7687 23.3599 20.229C23.3599 18.7778 22.6585 17.9481 21.3868 17.432C20.5315 17.0899 19.927 16.5139 19.9384 15.5303C19.9384 14.8289 20.2235 14.1731 20.9392 13.9649C21.9371 13.6798 22.935 13.7853 23.7191 14.5608C26.231 17.0357 26.6615 24.235 21.2272 26.0227C16.7137 27.5167 12.1033 25.0162 11.0797 20.3203C11.1519 20.0793 11.0786 19.8184 10.8916 19.6502C10.7507 19.1805 10.7359 18.6819 10.8488 18.2047C11.2308 17.8511 11.1873 17.4982 10.9115 17.107L10.9372 16.2145C11.5473 15.5987 11.9579 14.193 13.1155 15.6443C13.0841 16.0235 13.0442 16.4027 13.0157 16.7848C12.4768 16.9501 12.4968 17.164 12.9644 17.412Z" fill="#df5525"/>
<path d="M4.01447 7.62398C9.57146 0.986391 16.6424 -1.4799 25.4812 1.07478C27.8268 1.72939 30.0125 2.8601 31.9021 4.39643C31.1151 4.62452 30.103 4.59316 30.2141 5.85624C28.0786 4.64733 26.0657 3.26165 23.5794 2.74558C18.6497 1.71915 14.1362 2.65149 9.78245 5.08927C7.97479 6.10715 6.78014 7.75799 5.12359 8.88992C4.4279 9.05529 3.98311 8.58199 3.50696 8.23129C3.51237 8.13234 3.58592 8.05048 3.68373 8.03456L4.01447 7.62398Z" fill="#df5525"/>
<path d="M4.01448 7.62402L3.698 8.0346C3.71225 7.82931 3.78924 7.66679 4.01448 7.62402Z" fill="#DB4926"/>
<path fill-rule="evenodd" clip-rule="evenodd" d="M11.3267 15.7399C11.7682 15.1254 12.2096 14.511 13.1155 15.6445C13.3111 15.3118 13.4842 14.9681 13.6573 14.6246C14.1251 13.696 14.5925 12.7681 15.502 12.0605C18.1621 10.0019 21.0989 10.1131 24.0841 10.7119C27.4742 11.3791 29.2048 13.7969 30.1857 16.8961L30.2199 16.9817C30.2384 17.0473 30.2576 17.1121 30.2769 17.177L30.2769 17.1771C30.2962 17.2419 30.3154 17.3067 30.3339 17.3723C30.528 17.3622 30.7069 17.4769 30.7787 17.6574L32.2043 17.3723V16.5654C32.1729 16.4343 32.1444 16.3031 32.1159 16.1719C32.0774 16.1026 32.0389 16.0274 31.9999 15.9514C31.9667 15.8867 31.9333 15.8214 31.8992 15.7585L31.8622 15.6473L31.6854 15.2368C31.3282 14.7529 31.1385 14.1931 30.9464 13.6265C30.7017 12.9042 30.4532 12.1709 29.8492 11.5701C27.6652 9.40034 25.2274 8.29408 22.0911 8.06598C17.1642 7.69818 11.6272 11.2821 10.9486 16.2147C11.0813 16.0814 11.204 15.9107 11.3267 15.7399ZM10.8488 18.222C11.2309 17.8684 11.1967 17.4949 10.9115 17.1071C10.9047 17.2301 10.8974 17.3548 10.8901 17.4813L10.8901 17.4814C10.8762 17.7214 10.8619 17.968 10.8488 18.222ZM12.9644 17.4122C12.4968 17.1642 12.4769 16.9503 13.0157 16.7821L12.9644 17.4122ZM10.8916 19.6533C11.0786 19.8214 11.1519 20.0823 11.0798 20.3233C10.8902 20.1567 10.8164 19.8942 10.8916 19.6533Z" fill="#df5525"/>
<path d="M30.2026 5.85044C30.0914 4.58736 31.1036 4.61872 31.8906 4.39062C35.0497 6.5832 37.1197 9.50568 37.6158 13.3719C37.7754 14.6008 38.377 15.8211 37.8524 17.3465C35.9849 12.91 33.6697 8.98106 30.2026 5.85044Z" fill="#df5525"/>
<path fill-rule="evenodd" clip-rule="evenodd" d="M3.73166 8.37473L3.73167 8.37474C4.13388 8.6896 4.54399 9.01065 5.13546 8.87005C4.85642 9.392 4.5445 9.89536 4.23247 10.3989C3.55931 11.4852 2.88569 12.5722 2.54087 13.8482C1.82667 16.4931 1.67323 19.258 2.09038 21.9656C1.4289 20.9991 1.42236 19.8932 1.42236 18.787V16.5317C1.42236 16.5074 1.42262 16.4824 1.42288 16.457C1.42603 16.1524 1.42976 15.791 0.995518 15.8042C0.572423 15.817 0.578427 16.1363 0.583922 16.4286C0.584537 16.4614 0.585146 16.4937 0.585146 16.5253C0.615025 17.229 0.418451 17.9624 0.0432171 18.5584C-0.102194 14.6694 1.28349 11.2993 3.51883 8.21143C3.59016 8.26396 3.66079 8.31925 3.73166 8.37473L3.73166 8.37473ZM0.0541694 20.5001C0.51537 21.4402 0.668036 22.5018 0.490403 23.5338C-0.0672075 22.8037 -0.0197642 21.9857 0.0276517 21.1682C0.0406057 20.9449 0.0535576 20.7216 0.0541694 20.5001ZM3.12491 25.3414C2.41211 25.0763 2.30662 24.5659 2.55467 23.9158L3.12491 25.3414ZM2.40641 23.3456C1.9046 23.1688 1.89604 22.8751 2.21253 22.5073C2.39008 22.748 2.46025 23.0514 2.40641 23.3456ZM0.853087 24.9879C0.863857 24.6874 0.874697 24.3851 0.544576 24.1953C0.545413 24.2343 0.545868 24.2735 0.546323 24.3127C0.550514 24.6738 0.554707 25.0351 0.858208 25.3129C0.845172 25.2086 0.849125 25.0984 0.853087 24.9879Z" fill="#df5525"/>
<path d="M31.8622 15.6474L31.6854 15.2368L31.8622 15.6474Z" fill="#df5525"/>
</svg>
