<?xml version="1.0" standalone="no"?>
<!DOCTYPE svg PUBLIC "-//W3C//DTD SVG 20010904//EN"
 "http://www.w3.org/TR/2001/REC-SVG-20010904/DTD/svg10.dtd">
<svg version="1.0" xmlns="http://www.w3.org/2000/svg"
 width="153.000000pt" height="153.000000pt" viewBox="0 0 153.000000 153.000000"
 preserveAspectRatio="xMidYMid meet">
<metadata>
Created by potrace 1.11, written by Peter Selinger 2001-2013
</metadata>
<g transform="translate(0.000000,153.000000) scale(0.100000,-0.100000)"
fill="#000000" stroke="none">
<path d="M635 1486 c-156 -31 -268 -91 -392 -209 -118 -113 -176 -203 -221
-342 -19 -59 -23 -321 -5 -395 26 -114 87 -217 179 -305 126 -120 250 -174
428 -182 194 -10 311 25 464 136 77 56 110 101 177 241 l40 85 2 140 2 140
-40 87 c-21 49 -39 93 -39 98 0 16 -71 89 -117 121 -57 39 -141 68 -222 75
-166 16 -351 -85 -420 -229 -42 -87 -51 -208 -22 -286 64 -169 215 -252 379
-206 84 24 144 76 172 153 59 154 -26 356 -140 338 -44 -7 -62 -31 -58 -76 2
-27 10 -39 37 -55 19 -11 47 -32 62 -47 25 -23 29 -34 29 -80 0 -71 -25 -116
-81 -146 -37 -20 -54 -23 -106 -19 -146 11 -223 110 -223 289 0 56 44 155 88
195 70 65 171 89 297 72 97 -13 158 -38 207 -86 45 -44 96 -152 109 -235 13
-75 4 -221 -15 -263 -64 -140 -117 -213 -195 -267 -90 -63 -166 -83 -306 -82
-175 1 -293 37 -407 125 -99 75 -172 188 -203 313 -22 89 -17 295 10 371 69
197 264 366 493 427 91 24 258 29 342 9 82 -19 236 -99 296 -154 75 -69 147
-170 220 -310 60 -115 64 -120 64 -83 0 62 -30 205 -54 260 -49 108 -183 234
-330 308 -133 67 -362 101 -501 74z"/>
</g>
</svg>
