<svg width="25" height="22" viewBox="0 0 25 22" fill="none" xmlns="http://www.w3.org/2000/svg">
<path fill-rule="evenodd" clip-rule="evenodd" d="M5.59457 0.53983C5.4495 0.211464 5.0657 0.062875 4.73734 0.207947C4.43882 0.339831 4.28888 0.669008 4.37308 0.974475L4.40545 1.06518L4.90535 2.19669C4.76487 2.264 4.62585 2.33429 4.48858 2.40756C1.42668 4.04193 0.187468 6.89303 1.43853 8.6752C2.06135 9.56244 2.99653 9.83785 4.12501 9.5434V10.4728C4.12501 11.0457 4.26824 11.8204 4.5547 12.797C4.84116 13.7736 5.35548 14.5548 6.09767 15.1407L2.0547 17.3282L1.52736 17.6407C1.17579 17.8491 1.00001 18.0965 1.00001 18.3829V19.965C1.00001 20.2644 1.10418 20.5151 1.31251 20.7169C1.52085 20.9187 1.76824 21.0196 2.0547 21.0196H15.5703C15.8568 21.0196 16.1042 20.9187 16.3125 20.7169C16.5208 20.5151 16.625 20.2644 16.625 19.965V18.3829C16.625 18.0704 16.4492 17.8165 16.0977 17.6212L15.5703 17.3282L11.6445 15.1603C12.3737 14.5743 12.8652 13.8061 13.1192 12.8556C13.3731 11.9051 13.5 11.1108 13.5 10.4728V7.83605C13.5 7.67034 13.4813 7.5051 13.4439 7.34031C14.4304 5.43439 14.4962 3.79855 13.5569 2.51987C12.3706 0.905066 9.09687 0.673595 6.10879 1.70376L5.59457 0.53983ZM12.6571 5.91924C13.063 4.81719 12.9988 3.95596 12.5092 3.28952C11.5792 2.02357 7.92102 2.04901 5.10074 3.55441C2.65215 4.86141 1.77167 6.88715 2.50254 7.92828C2.82737 8.39102 3.31307 8.49471 4.12501 8.18102V7.83605C4.12501 7.39333 4.26173 6.95389 4.53517 6.51769C4.80861 6.08149 5.16668 5.68761 5.60939 5.33605C6.0521 4.98448 6.55665 4.69803 7.12306 4.47667C7.68947 4.25532 8.25913 4.14464 8.83205 4.14464C9.41798 4.14464 9.9909 4.25532 10.5508 4.47667C11.1107 4.69803 11.6087 4.98448 12.0449 5.33605C12.2719 5.51899 12.476 5.71339 12.6571 5.91924ZM20.9139 21.3433C21.3822 21.3106 21.8098 21.0974 22.1177 20.7432C22.4222 20.3929 22.5739 19.9462 22.5457 19.4835L22.3765 10.8544C22.5341 10.7613 22.6851 10.6554 22.8282 10.5369C23.5542 9.93745 24.0134 9.07226 24.1235 8.1033C24.2249 7.2107 23.9326 6.436 23.6747 5.75252L23.6747 5.75249C23.308 4.78087 23.0185 4.01344 23.6093 2.92451C23.7102 2.73863 23.703 2.51283 23.5906 2.3337C23.4782 2.15458 23.278 2.04995 23.0667 2.05989C22.9808 2.06394 20.9455 2.17439 19.3774 3.49023C18.2587 4.42893 17.2004 5.56072 17.0326 7.46978C16.9493 8.41703 17.24 9.33973 17.851 10.0679C18.1428 10.4156 18.4908 10.699 18.8781 10.9093L18.9073 13.0993C18.908 13.1524 18.9158 13.2038 18.9297 13.2526C18.9281 13.2724 18.9275 13.2924 18.928 13.3127C18.9353 13.6362 19.2035 13.8924 19.527 13.8851L21.2632 13.8458L21.3745 19.5198L21.3758 19.5491C21.3867 19.7052 21.3361 19.8562 21.2335 19.9743C21.1309 20.0923 20.9883 20.1635 20.8322 20.1744C20.514 20.1966 20.2365 19.9591 20.2079 19.6429L20.1361 15.9909C20.1298 15.6674 19.8624 15.4103 19.5389 15.4167C19.2154 15.4231 18.9583 15.6904 18.9646 16.014L19.0368 19.6831L19.0381 19.7125C19.1056 20.6793 19.9471 21.4108 20.9139 21.3433ZM18.1998 7.57236C18.323 6.17056 19.0607 5.28549 20.1306 4.38781C20.7929 3.83203 21.5822 3.54089 22.1838 3.38963C21.9375 4.46765 22.2736 5.3584 22.5784 6.16618L22.5784 6.16623C22.81 6.77992 23.0287 7.3596 22.9592 7.97101C22.8835 8.63744 22.571 9.22884 22.081 9.63436C21.607 10.0268 20.9991 10.2127 20.3693 10.1578C19.7339 10.1025 19.1584 9.80311 18.7486 9.31478C18.3389 8.82643 18.144 8.20769 18.1998 7.57236ZM20.0551 11.3003L20.0738 12.7007L21.2402 12.6743L21.213 11.2842C20.9057 11.3387 20.5884 11.353 20.2676 11.3251C20.1963 11.3189 20.1254 11.3106 20.0551 11.3003ZM15.375 19.7696H2.25001V18.6564L2.3965 18.5587C2.45509 18.5196 2.51043 18.4936 2.56251 18.4806C2.57553 18.4676 2.58856 18.4578 2.60158 18.4513C2.6146 18.4448 2.62762 18.4415 2.64064 18.4415L6.68361 16.2345C6.8659 16.1433 7.01564 16.0099 7.13283 15.8341C7.25001 15.6583 7.31512 15.4663 7.32814 15.2579C7.35418 15.0496 7.32488 14.8478 7.24025 14.6525C7.15561 14.4571 7.03517 14.2944 6.87892 14.1642C6.34506 13.7475 5.96095 13.1518 5.72658 12.3771C5.4922 11.6023 5.37501 10.9676 5.37501 10.4728V7.83605C5.37501 7.38031 5.72983 6.85949 6.43947 6.27355C7.14911 5.6876 7.94662 5.39464 8.83205 5.39464C9.74351 5.39464 10.541 5.6876 11.2246 6.27355C11.9082 6.85949 12.25 7.38031 12.25 7.83605V10.4728C12.25 10.9676 12.1524 11.6023 11.957 12.3771C11.7617 13.1518 11.3972 13.7475 10.8633 14.1642C10.694 14.2944 10.5671 14.4571 10.4824 14.6525C10.3978 14.8478 10.3685 15.0496 10.3945 15.2579C10.4076 15.4663 10.4727 15.6583 10.5899 15.8341C10.707 16.0099 10.8568 16.1498 11.0391 16.254L14.9649 18.422C14.9909 18.435 15.0137 18.448 15.0332 18.461C15.0527 18.4741 15.069 18.4806 15.082 18.4806L15.2383 18.5587C15.2904 18.5847 15.336 18.6173 15.375 18.6564V19.7696Z" fill="currentColor"/>
</svg>
