<svg width="17" height="20" viewBox="0 0 17 20" fill="none" xmlns="http://www.w3.org/2000/svg">
<path d="M14.25 13.768L16.182 15.7V16.643H0.818V15.7L2.75 13.768V9.007C2.75 7.50433 3.12567 6.20867 3.877 5.12C4.64367 4.00067 5.70933 3.27233 7.074 2.935V2.268C7.074 1.86933 7.212 1.532 7.488 1.256C7.764 0.964666 8.10133 0.818999 8.5 0.818999C8.89867 0.818999 9.236 0.964666 9.512 1.256C9.80333 1.532 9.949 1.86933 9.949 2.268V2.935C11.2983 3.27233 12.3563 4.00833 13.123 5.143C13.8743 6.23167 14.25 7.51967 14.25 9.007V13.768ZM8.5 19.518C7.96333 19.518 7.50333 19.334 7.12 18.966C6.752 18.598 6.568 18.1533 6.568 17.632H10.432C10.432 18.1533 10.2403 18.598 9.857 18.966C9.47367 19.334 9.02133 19.518 8.5 19.518Z" fill="currentColor"/>
</svg>
