<svg width="19" height="19" viewBox="0 0 19 19" fill="none" xmlns="http://www.w3.org/2000/svg">
<path fill-rule="evenodd" clip-rule="evenodd" d="M14.0962 4.90381C13.7057 4.51329 13.0725 4.51329 12.682 4.90381L9.5 8.08579L6.31802 4.90381C5.9275 4.51329 5.29433 4.51329 4.90381 4.90381C4.51328 5.29434 4.51328 5.9275 4.90381 6.31802L8.08579 9.50001L4.90381 12.682C4.51328 13.0725 4.51328 13.7057 4.90381 14.0962C5.29433 14.4867 5.92749 14.4867 6.31802 14.0962L9.5 10.9142L12.682 14.0962C13.0725 14.4867 13.7057 14.4867 14.0962 14.0962C14.4867 13.7057 14.4867 13.0725 14.0962 12.682L10.9142 9.50001L14.0962 6.31802C14.4867 5.9275 14.4867 5.29434 14.0962 4.90381Z" fill="#191919"/>
</svg>
