<svg width="30" height="26" viewBox="0 0 30 26" fill="none" xmlns="http://www.w3.org/2000/svg">
<path fill-rule="evenodd" clip-rule="evenodd" d="M21.5703 13.1836L17.6445 11.0156C18.3737 10.4297 18.8652 9.66146 19.1191 8.71094C19.373 7.76041 19.5 6.96615 19.5 6.32812V3.69141C19.5 3.2487 19.3665 2.80925 19.0996 2.37305C18.8327 1.93685 18.4811 1.54297 18.0449 1.19141C17.6087 0.839842 17.1107 0.553387 16.5508 0.332031C15.9909 0.110676 15.418 0 14.832 0C14.2591 0 13.6895 0.110676 13.123 0.332031C12.5566 0.553387 12.0521 0.839842 11.6094 1.19141C11.1667 1.54297 10.8086 1.93685 10.5352 2.37305C10.2617 2.80925 10.125 3.2487 10.125 3.69141V6.32812C10.125 6.90104 10.2682 7.67578 10.5547 8.65234C10.8411 9.62891 11.3555 10.4102 12.0977 10.9961L8.05469 13.1836L7.52734 13.4961C7.17578 13.7044 7 13.9518 7 14.2383V15.8203C7 16.1198 7.10417 16.3704 7.3125 16.5723C7.52083 16.7741 7.76823 16.875 8.05469 16.875H21.5703C21.8568 16.875 22.1042 16.7741 22.3125 16.5723C22.5208 16.3704 22.625 16.1198 22.625 15.8203V14.2383C22.625 13.9258 22.4492 13.6719 22.0977 13.4766L21.5703 13.1836ZM21.375 15.625H8.25V14.5117L8.39648 14.4141C8.45508 14.375 8.51042 14.349 8.5625 14.3359C8.57552 14.3229 8.58854 14.3132 8.60156 14.3066C8.61458 14.3001 8.6276 14.2969 8.64062 14.2969L12.6836 12.0898C12.8659 11.9987 13.0156 11.8652 13.1328 11.6895C13.25 11.5137 13.3151 11.3216 13.3281 11.1133C13.3542 10.9049 13.3249 10.7031 13.2402 10.5078C13.1556 10.3125 13.0352 10.1497 12.8789 10.0195C12.345 9.60286 11.9609 9.00716 11.7266 8.23242C11.4922 7.45768 11.375 6.82292 11.375 6.32812V3.69141C11.375 3.23567 11.7298 2.71485 12.4395 2.12891C13.1491 1.54297 13.9466 1.25 14.832 1.25C15.7435 1.25 16.541 1.54297 17.2246 2.12891C17.9082 2.71485 18.25 3.23567 18.25 3.69141V6.32812C18.25 6.82292 18.1523 7.45768 17.957 8.23242C17.7617 9.00716 17.3971 9.60286 16.8633 10.0195C16.694 10.1497 16.5671 10.3125 16.4824 10.5078C16.3978 10.7031 16.3685 10.9049 16.3945 11.1133C16.4076 11.3216 16.4727 11.5137 16.5898 11.6895C16.707 11.8652 16.8568 12.0052 17.0391 12.1094L20.9648 14.2773C20.9909 14.2904 21.0137 14.3034 21.0332 14.3164C21.0527 14.3294 21.069 14.3359 21.082 14.3359L21.2383 14.4141C21.2904 14.4401 21.3359 14.4727 21.375 14.5117V15.625Z" fill="currentColor"/>
<path fill-rule="evenodd" clip-rule="evenodd" d="M18.24 20.6418C18.3935 20.6671 18.52 20.7758 18.5679 20.9236C18.616 21.0715 18.5775 21.2337 18.468 21.3443L16.8502 22.9804L17.1975 25.2548C17.2209 25.4085 17.1567 25.5625 17.0309 25.6538C16.9052 25.7453 16.7389 25.7588 16.6 25.689L14.5441 24.6559L12.4881 25.689C12.4292 25.7186 12.3652 25.7332 12.3016 25.7332C12.2154 25.7332 12.1296 25.7064 12.0573 25.6538C11.9314 25.5625 11.8672 25.4085 11.8907 25.2548L12.2378 22.9804L10.6201 21.3443C10.5108 21.2337 10.4723 21.0715 10.5204 20.9236C10.5684 20.7757 10.6949 20.6671 10.8484 20.6418L13.1188 20.2691L14.1749 18.2249C14.2463 18.0867 14.3887 18 14.5442 18C14.6996 18 14.8421 18.0868 14.9134 18.2249L15.9695 20.2691L18.24 20.6418ZM15.9972 22.8993C15.9774 22.7694 16.0202 22.6378 16.1125 22.5443L17.3113 21.3318L15.6287 21.0556C15.499 21.0343 15.3871 20.9529 15.3267 20.8362L14.5441 19.3213L13.7614 20.8362C13.7012 20.9529 13.5892 21.0343 13.4595 21.0556L11.7769 21.3318L12.9759 22.5443C13.0683 22.6377 13.1111 22.7693 13.0912 22.8993L12.834 24.5848L14.3577 23.8193C14.4751 23.7603 14.6134 23.7603 14.7309 23.8193L16.2545 24.5848L15.9972 22.8993Z" fill="currentColor"/>
<path fill-rule="evenodd" clip-rule="evenodd" d="M28.9167 18.6418C29.0701 18.6671 29.1965 18.7758 29.2446 18.9236C29.2926 19.0715 29.2542 19.2338 29.1447 19.3443L27.5269 20.9804L27.8741 23.2549C27.8975 23.4086 27.8333 23.5625 27.7075 23.6539C27.6352 23.7065 27.5495 23.7333 27.4632 23.7333C27.3996 23.7333 27.3356 23.7187 27.2767 23.689L25.2207 22.656L23.1648 23.689C23.0259 23.7589 22.8597 23.7452 22.7339 23.6539C22.6081 23.5625 22.5439 23.4086 22.5673 23.2549L22.9145 20.9804L21.2967 19.3443C21.1874 19.2338 21.1489 19.0715 21.197 18.9236C21.2451 18.7757 21.3716 18.6671 21.525 18.6418L23.7955 18.2691L24.8516 16.2249C24.923 16.0867 25.0654 16 25.2209 16C25.3763 16 25.5188 16.0868 25.5901 16.2249L26.6463 18.2691L28.9167 18.6418ZM26.6739 20.8993C26.6541 20.7695 26.6968 20.6378 26.7892 20.5444L27.9879 19.3319L26.3054 19.0558C26.1757 19.0344 26.0638 18.953 26.0034 18.8363L25.2208 17.3214L24.4381 18.8363C24.3779 18.953 24.2659 19.0344 24.1362 19.0558L22.4536 19.3319L23.6526 20.5444C23.7449 20.6377 23.7877 20.7694 23.7679 20.8993L23.5106 22.5849L25.0342 21.8194C25.0929 21.7899 25.1569 21.7751 25.2209 21.7751C25.2849 21.7751 25.3487 21.7899 25.4075 21.8194L26.9312 22.5849L26.6739 20.8993Z" fill="currentColor"/>
<path fill-rule="evenodd" clip-rule="evenodd" d="M7.73999 18.6418C7.8934 18.6671 8.01998 18.7758 8.06798 18.9237C8.11604 19.0715 8.07749 19.2338 7.96803 19.3444L6.3503 20.9804L6.69746 23.255C6.7209 23.4086 6.65669 23.5626 6.53087 23.6539C6.45857 23.7066 6.37276 23.7333 6.28652 23.7333C6.22291 23.7333 6.15898 23.7187 6.10001 23.6891L4.04412 22.656L1.98818 23.6891C1.84929 23.7589 1.68308 23.7453 1.55731 23.6539C1.43149 23.5626 1.36729 23.4086 1.39072 23.255L1.73789 20.9804L0.120101 19.3444C0.0108053 19.2338 -0.0276967 19.0715 0.0203633 18.9237C0.0684233 18.7758 0.194945 18.6671 0.348359 18.6419L2.61884 18.2692L3.67481 16.2249C3.7462 16.0867 3.8886 16 4.04412 16C4.19964 16 4.34204 16.0868 4.41343 16.2249L5.4695 18.2691L7.73999 18.6418ZM5.49715 20.8993C5.47733 20.7695 5.5201 20.6378 5.6125 20.5444L6.81151 19.3319L5.12887 19.0558C4.99922 19.0344 4.88722 18.953 4.8269 18.8363L4.04428 17.3214L3.26166 18.8363C3.20134 18.953 3.08935 19.0344 2.95969 19.0558L1.27705 19.3319L2.47585 20.5444C2.56825 20.6377 2.61101 20.7694 2.5912 20.8993L2.33389 22.5849L3.85755 21.8194C3.91625 21.7899 3.98018 21.7751 4.04417 21.7751C4.10816 21.7751 4.1721 21.7899 4.2308 21.8194L5.75441 22.5849L5.49715 20.8993Z" fill="currentColor"/>
</svg>
