<svg width="15" height="10" viewBox="0 0 15 10" fill="none" xmlns="http://www.w3.org/2000/svg">
<path d="M7.5 2.875C7.83 2.875 8.14 2.96 8.43 3.13C8.72 3.3 8.95 3.53 9.12 3.82C9.29 4.11 9.375 4.42 9.375 4.75C9.375 5.08 9.29 5.39 9.12 5.68C8.95 5.97 8.72 6.2 8.43 6.37C8.14 6.54 7.83 6.625 7.5 6.625C7.17 6.625 6.86 6.54 6.57 6.37C6.28 6.2 6.05 5.97 5.88 5.68C5.71 5.39 5.625 5.08 5.625 4.75C5.625 4.42 5.71 4.11 5.88 3.82C6.05 3.53 6.28 3.3 6.57 3.13C6.86 2.96 7.17 2.875 7.5 2.875ZM7.5 7.885C8.07 7.885 8.595 7.745 9.075 7.465C9.555 7.185 9.935 6.805 10.215 6.325C10.495 5.845 10.635 5.32 10.635 4.75C10.635 4.18 10.495 3.655 10.215 3.175C9.935 2.695 9.555 2.315 9.075 2.035C8.595 1.755 8.07 1.615 7.5 1.615C6.93 1.615 6.405 1.755 5.925 2.035C5.445 2.315 5.065 2.695 4.785 3.175C4.505 3.655 4.365 4.18 4.365 4.75C4.365 5.32 4.505 5.845 4.785 6.325C5.065 6.805 5.445 7.185 5.925 7.465C6.405 7.745 6.93 7.885 7.5 7.885ZM7.5 0.0549993C8.53 0.0549993 9.51 0.254999 10.44 0.655C11.34 1.045 12.13 1.595 12.81 2.305C13.5 3.015 14.025 3.83 14.385 4.75C14.025 5.67 13.5 6.485 12.81 7.195C12.13 7.895 11.34 8.44 10.44 8.83C9.51 9.23 8.53 9.43 7.5 9.43C6.47 9.43 5.49 9.23 4.56 8.83C3.66 8.44 2.865 7.895 2.175 7.195C1.495 6.485 0.975 5.67 0.615 4.75C0.975 3.83 1.495 3.015 2.175 2.305C2.865 1.595 3.66 1.045 4.56 0.655C5.49 0.254999 6.47 0.0549993 7.5 0.0549993Z" fill="#9EA0A5"/>
</svg>
