<svg width="24" height="23" viewBox="0 0 24 23" fill="none" xmlns="http://www.w3.org/2000/svg">
<path fill-rule="evenodd" clip-rule="evenodd" d="M22.9089 10.8316C23.0316 10.8994 23.1079 11.0284 23.108 11.1686C23.1079 11.3089 23.0316 11.4381 22.9087 11.5059L19.3318 13.4794L22.9091 15.4537C23.0319 15.5215 23.1082 15.6507 23.1082 15.791C23.1082 15.9313 23.0319 16.0605 22.9091 16.1282L11.7402 22.2904C11.6244 22.3543 11.4839 22.3543 11.368 22.2904L0.199118 16.1282C0.0762798 16.0605 0 15.9313 0 15.791C0 15.6507 0.0762798 15.5215 0.199118 15.4537L3.77606 13.4799L0.199118 11.5061C0.0762798 11.4383 0 11.3092 0 11.1689C0 11.0286 0.0762798 10.8994 0.199118 10.8316L3.77606 8.85782L3.62239 8.77323C3.43614 8.67049 3.36845 8.43621 3.4712 8.24996C3.57395 8.06371 3.80823 7.99602 3.99448 8.09877L4.61185 8.43942C4.63722 8.45328 4.85911 8.57889 4.91033 8.6718C5.01308 8.85802 4.94543 9.09228 4.75921 9.19505L1.18227 11.1686L11.5539 16.8909L21.9253 11.1689L18.3484 9.19505C18.2589 9.14572 18.1928 9.06287 18.1644 8.96474C18.136 8.86662 18.1478 8.76124 18.1972 8.6718C18.2485 8.57898 18.4704 8.45328 18.4956 8.43937L19.113 8.09877C19.2993 7.99603 19.5335 8.06373 19.6363 8.24998C19.739 8.43623 19.6713 8.6705 19.485 8.77323L19.3318 8.85782L22.9089 10.8316ZM11.5539 21.5125L21.9256 15.7903L18.5345 13.9193L11.74 17.668C11.6242 17.7319 11.4837 17.7319 11.3678 17.668L4.57334 13.9193L1.18227 15.7903L11.5539 21.5125Z" fill="currentColor"/>
<path d="M11.4026 0.90815L11.5537 0.824769L11.7049 0.90815C11.8911 1.0109 12.1254 0.94321 12.2282 0.756961C12.3309 0.570712 12.2632 0.336432 12.077 0.233683L11.7398 0.047903C11.624 -0.0159677 11.4835 -0.0159677 11.3677 0.047903L11.0307 0.233923C10.8445 0.336673 10.7768 0.570952 10.8795 0.757202C10.9823 0.943451 11.2166 1.01114 11.4028 0.908391L11.4026 0.90815Z" fill="currentColor"/>
<path d="M12.9399 1.58916L13.5572 1.92977C13.7434 2.03254 13.9777 1.96488 14.0805 1.77863C14.1833 1.59238 14.1156 1.35808 13.9293 1.2553L13.312 0.914696C13.1258 0.811934 12.8915 0.879613 12.7887 1.06586C12.686 1.25211 12.7536 1.4864 12.9399 1.58916V1.58916Z" fill="currentColor"/>
<path d="M14.7915 2.61111L15.4088 2.95167C15.5948 3.05277 15.8276 2.98472 15.9299 2.79932C16.0322 2.61392 15.9656 2.38072 15.7809 2.27725L15.1635 1.93665C14.9773 1.83391 14.743 1.90161 14.6403 2.08786C14.5375 2.27411 14.6052 2.50838 14.7915 2.61111V2.61111Z" fill="currentColor"/>
<path d="M18.4958 4.65482L19.1132 4.99542C19.2994 5.09816 19.5337 5.03046 19.6364 4.84421C19.7391 4.65796 19.6714 4.42369 19.4852 4.32096L18.8679 3.9804C18.6819 3.8793 18.4491 3.94735 18.3468 4.13275C18.2445 4.31815 18.3111 4.55135 18.4958 4.65482V4.65482Z" fill="currentColor"/>
<path d="M20.3476 5.67656L20.9649 6.01711C21.1512 6.11986 21.3855 6.05217 21.4882 5.86592C21.591 5.67967 21.5233 5.44539 21.337 5.34264L20.7197 5.00209C20.5335 4.89934 20.2992 4.96703 20.1964 5.15328C20.0937 5.33953 20.1614 5.57381 20.3476 5.67656V5.67656Z" fill="currentColor"/>
<path d="M16.6434 3.63303L17.2607 3.97363C17.447 4.07639 17.6813 4.00871 17.784 3.82247C17.8868 3.63622 17.8191 3.40193 17.6329 3.29916L17.0155 2.95856C16.895 2.89209 16.7483 2.89495 16.6305 2.96606C16.5127 3.03716 16.4417 3.16572 16.4444 3.30329C16.4471 3.44086 16.523 3.56656 16.6434 3.63303V3.63303Z" fill="currentColor"/>
<path d="M22.0485 6.91937C22.1512 7.1056 22.3855 7.17328 22.5717 7.07054L22.9087 6.88452C23.0316 6.81676 23.1078 6.68757 23.1078 6.54728C23.1078 6.407 23.0316 6.2778 22.9087 6.21005L22.5717 6.02403C22.4215 5.94114 22.2346 5.96758 22.1133 6.08887C21.992 6.21017 21.9655 6.39708 22.0484 6.54728C21.9846 6.66309 21.9846 6.80358 22.0485 6.91937V6.91937Z" fill="currentColor"/>
<path d="M17.2608 9.12067L16.6434 9.46127C16.5229 9.52775 16.4471 9.65345 16.4444 9.79103C16.4417 9.92861 16.5127 10.0572 16.6305 10.1283C16.7483 10.1994 16.8951 10.2022 17.0156 10.1357L17.6328 9.79514C17.7533 9.72867 17.8292 9.60297 17.8319 9.4654C17.8345 9.32783 17.7636 9.19927 17.6458 9.12817C17.528 9.05706 17.3812 9.0542 17.2608 9.12067V9.12067Z" fill="currentColor"/>
<path d="M13.1259 12.2273C13.1909 12.2272 13.2548 12.2107 13.3117 12.1791L13.929 11.8386C14.0495 11.7721 14.1253 11.6464 14.128 11.5089C14.1307 11.3713 14.0598 11.2427 13.942 11.1716C13.8242 11.1005 13.6774 11.0977 13.5569 11.1641L12.9396 11.5047C12.7855 11.5895 12.7086 11.7679 12.7525 11.9382C12.7964 12.1085 12.9501 12.2274 13.1259 12.2271V12.2273Z" fill="currentColor"/>
<path d="M15.4092 10.1424L14.7919 10.4829C14.6714 10.5494 14.5955 10.6751 14.5928 10.8126C14.5902 10.9502 14.6611 11.0788 14.7789 11.1499C14.8967 11.221 15.0434 11.2239 15.1639 11.1574L15.7813 10.8168C15.9027 10.7508 15.9794 10.6249 15.9824 10.4867C15.9854 10.3486 15.9141 10.2194 15.7957 10.1482C15.6772 10.0771 15.5297 10.0749 15.4092 10.1424V10.1424Z" fill="currentColor"/>
<path d="M20.5342 8.13995C20.5992 8.1399 20.6631 8.12333 20.72 8.09181L21.3372 7.7512C21.4577 7.68473 21.5336 7.55902 21.5362 7.42145C21.5389 7.28387 21.468 7.15531 21.3502 7.08421C21.2324 7.01311 21.0856 7.01026 20.9651 7.07673L20.3478 7.41734C20.1937 7.5022 20.1168 7.68061 20.1607 7.85089C20.2046 8.02117 20.3583 8.14006 20.5342 8.1398V8.13995Z" fill="currentColor"/>
<path d="M11.0307 12.8606L11.3677 13.0467C11.4835 13.1105 11.624 13.1105 11.7398 13.0467L12.077 12.8606C12.2632 12.7579 12.3309 12.5236 12.2282 12.3374C12.1254 12.1511 11.8911 12.0834 11.7049 12.1862L11.554 12.2696L11.4028 12.1862C11.2166 12.0834 10.9823 12.1511 10.8795 12.3374C10.7768 12.5236 10.8445 12.7579 11.0307 12.8606V12.8606Z" fill="currentColor"/>
<path d="M2.76033 7.41783L2.14301 7.07727C1.95676 6.97453 1.72249 7.04224 1.61975 7.22848C1.51702 7.41473 1.58472 7.649 1.77096 7.75174L2.38824 8.09229C2.50872 8.15876 2.65551 8.1559 2.77332 8.0848C2.89112 8.01369 2.96204 7.88514 2.95936 7.74756C2.95668 7.60999 2.88081 7.48429 2.76033 7.41783V7.41783Z" fill="currentColor"/>
<path d="M6.46438 9.46128L5.84711 9.12068C5.72663 9.0542 5.57983 9.05705 5.46202 9.12816C5.34421 9.19926 5.27328 9.32781 5.27595 9.46539C5.27862 9.60297 5.35449 9.72867 5.47497 9.79515L6.09229 10.1358C6.27854 10.2385 6.51282 10.1708 6.61557 9.98456C6.71832 9.79831 6.65063 9.56403 6.46438 9.46128V9.46128Z" fill="currentColor"/>
<path d="M8.3163 10.4831L7.69897 10.1425C7.51293 10.0414 7.28016 10.1095 7.17787 10.2949C7.07558 10.4803 7.14215 10.7135 7.32688 10.8169L7.94426 11.1575C8.13051 11.2603 8.36477 11.1926 8.46751 11.0063C8.57025 10.8201 8.50255 10.5858 8.3163 10.4831V10.4831Z" fill="currentColor"/>
<path d="M10.168 11.5047L9.55072 11.1641C9.43024 11.0977 9.28344 11.1005 9.16563 11.1716C9.04782 11.2427 8.97689 11.3713 8.97957 11.5088C8.98224 11.6464 9.0581 11.7721 9.17858 11.8386L9.79591 12.1792C9.91639 12.2457 10.0632 12.2428 10.181 12.1717C10.2988 12.1006 10.3697 11.9721 10.367 11.8345C10.3643 11.6969 10.2885 11.5712 10.168 11.5047V11.5047Z" fill="currentColor"/>
<path d="M0.198926 6.88452L0.535919 7.07054C0.686124 7.15359 0.873163 7.12723 0.994558 7.00589C1.11595 6.88455 1.1424 6.69752 1.05941 6.54728C1.14229 6.39708 1.11583 6.21017 0.994524 6.08887C0.873215 5.96758 0.686305 5.94114 0.536111 6.02403L0.199118 6.21005C0.0762798 6.2778 0 6.407 0 6.54728C0 6.68757 0.0762798 6.81676 0.199118 6.88452H0.198926Z" fill="currentColor"/>
<path d="M3.80903 5.04343C3.874 5.04336 3.93789 5.0268 3.99471 4.99529L4.61208 4.65469C4.7335 4.58871 4.81026 4.46275 4.81324 4.32459C4.81622 4.18644 4.74496 4.05728 4.62651 3.98613C4.50805 3.91498 4.36055 3.91274 4.23999 3.98027L3.62267 4.32082C3.46865 4.40568 3.39166 4.58408 3.43558 4.75435C3.4795 4.92462 3.63318 5.04352 3.80903 5.04329V5.04343Z" fill="currentColor"/>
<path d="M1.95702 6.06482C2.022 6.06477 2.08589 6.0482 2.14271 6.01668L2.76003 5.67608C2.94628 5.57332 3.01396 5.33903 2.9112 5.15278C2.80843 4.96653 2.57414 4.89885 2.38789 5.00161L1.77062 5.34221C1.61659 5.42707 1.5396 5.60548 1.58354 5.77576C1.62747 5.94604 1.78117 6.06494 1.95702 6.06468V6.06482Z" fill="currentColor"/>
<path d="M7.51309 2.99987C7.57808 2.99982 7.64199 2.98326 7.69882 2.95173L8.31614 2.61113C8.50239 2.50838 8.57008 2.2741 8.46733 2.08785C8.36458 1.9016 8.1303 1.83391 7.94406 1.93666L7.32668 2.27731C7.17271 2.36219 7.09576 2.54057 7.13969 2.71082C7.18362 2.88106 7.33727 2.99994 7.51309 2.99973V2.99987Z" fill="currentColor"/>
<path d="M9.36523 1.97777C9.4302 1.97771 9.4941 1.96115 9.55091 1.92963L10.1682 1.58907C10.2887 1.52261 10.3645 1.39692 10.3672 1.25935C10.3699 1.12178 10.299 0.993232 10.1812 0.922121C10.0634 0.85101 9.91663 0.848143 9.79615 0.914602L9.17882 1.25516C9.02479 1.34001 8.94781 1.51843 8.99174 1.68871C9.03568 1.85899 9.18937 1.97788 9.36523 1.97762V1.97777Z" fill="currentColor"/>
<path d="M5.66139 4.02137C5.72636 4.02131 5.79026 4.00475 5.84707 3.97323L6.4644 3.63262C6.65064 3.52986 6.71832 3.29557 6.61556 3.10932C6.5128 2.92307 6.27851 2.85539 6.09226 2.95815L5.47498 3.29876C5.3208 3.38354 5.24368 3.56205 5.28764 3.73243C5.33159 3.90282 5.48543 4.02174 5.66139 4.02137Z" fill="currentColor"/>
</svg>
