<svg width="18" height="19" viewBox="0 0 18 19" fill="none" xmlns="http://www.w3.org/2000/svg">
<path fill-rule="evenodd" clip-rule="evenodd" d="M9.82399 2.24928C9.65303 2.19199 9.47798 2.14145 9.29883 2.09766V1.42383C9.29883 1.03451 9.17155 0.705078 8.91699 0.435547C8.66243 0.166016 8.32552 0.03125 7.90625 0.03125C7.48698 0.03125 7.14258 0.166016 6.87305 0.435547C6.63346 0.705078 6.51367 1.03451 6.51367 1.42383V2.09766C5.16602 2.42708 4.05046 3.13835 3.16699 4.23145C2.28353 5.32454 1.8418 6.57487 1.8418 7.98242V13.1035L0 14.9902V15.9336H15.8125V14.9902L13.9707 13.1035V9.99992C13.4707 9.99705 12.9882 9.9208 12.5332 9.7814V13.6875L12.9375 14.1367L13.2969 14.4961H2.51562L2.875 14.1367L3.2793 13.6875V7.98242C3.2793 6.9043 3.60872 5.93848 4.26758 5.08496C4.92643 4.23145 5.76497 3.69987 6.7832 3.49023L7.86133 3.26562H7.95117C8.16081 3.26562 8.52018 3.34049 9.0293 3.49023C9.09308 3.50337 9.15616 3.51776 9.21853 3.53342C9.35938 3.07367 9.56471 2.64211 9.82399 2.24928ZM7.90625 18.7188C8.41536 18.7188 8.84961 18.5316 9.20898 18.1572C9.56836 17.7829 9.74805 17.3411 9.74805 16.832H6.06445C6.06445 17.3411 6.24414 17.7829 6.60352 18.1572C6.96289 18.5316 7.39714 18.7188 7.90625 18.7188Z" fill="currentColor"/>
<path fill-rule="evenodd" clip-rule="evenodd" d="M18 5C18 2.79086 16.2091 1 14 1C11.7909 1 10 2.79086 10 5C10 7.20914 11.7909 9 14 9C16.2091 9 18 7.20914 18 5ZM11.5 5C11.5 3.61929 12.6193 2.5 14 2.5C15.3807 2.5 16.5 3.61929 16.5 5C16.5 6.38071 15.3807 7.5 14 7.5C12.6193 7.5 11.5 6.38071 11.5 5Z" fill="currentColor"/>
</svg>
