
<svg width="21" height="16" viewBox="0 0 21 16" fill="none" xmlns="http://www.w3.org/2000/svg">
<path d="M6.98185 0.412656L0.463415 6.60699L0.352532 6.72527C-0.159701 7.35424 -0.10603 8.24055 0.463415 8.78169L6.98185 14.976L7.10128 15.0774C7.73149 15.5434 8.57999 15.4718 9.10248 14.922L9.20389 14.8025L9.28994 14.6737C9.65818 14.0606 9.56159 13.289 9.04842 12.8013L5.2567 9.198L19.4967 9.2C20.3251 9.2 20.9967 8.52843 20.9967 7.7L20.9898 7.55554C20.9171 6.79489 20.2764 6.2 19.4967 6.2L5.2457 6.199L9.04837 2.58739L9.15579 2.47324C9.65325 1.86759 9.62497 1.01654 9.10248 0.466719C8.53181 -0.133806 7.58237 -0.158011 6.98185 0.412656Z" fill="black"/>
</svg>
