<svg width="20" height="16" viewBox="0 0 20 16" fill="none" xmlns="http://www.w3.org/2000/svg">
<path fill-rule="evenodd" clip-rule="evenodd" d="M18.1641 16C18.5677 16 18.9746 15.8173 19.3848 15.4519C19.7949 15.0865 20 14.6603 20 14.1731V4.30769C20 4 19.8438 3.61538 19.5312 3.15385C19.2188 2.69231 18.75 2.46154 18.125 2.46154H15.2539L13.75 0H6.25L4.74609 2.46154H1.875C1.5625 2.46154 1.17188 2.61538 0.703125 2.92308C0.234375 3.23077 0 3.6859 0 4.28846V14.1538C0 14.6667 0.188802 15.1026 0.566406 15.4615C0.94401 15.8205 1.33464 16 1.73828 16H18.1641ZM18.1641 14.7692H1.75781C1.67969 14.7692 1.57552 14.7083 1.44531 14.5865C1.3151 14.4647 1.25 14.3205 1.25 14.1538V4.28846C1.25 4.09615 1.34115 3.94872 1.52344 3.84615C1.70573 3.74359 1.82292 3.69231 1.875 3.69231H5.44922L6.95312 1.23077H13.0859L14.1992 3.09615L14.5508 3.69231H18.125C18.3464 3.69231 18.5059 3.78846 18.6035 3.98077C18.7012 4.17308 18.75 4.28205 18.75 4.30769V14.1731C18.75 14.2885 18.6751 14.4135 18.5254 14.5481C18.3757 14.6827 18.2552 14.7564 18.1641 14.7692ZM11.6992 12.86C11.1654 13.0844 10.599 13.1966 10 13.1966C9.40104 13.1966 8.83464 13.0844 8.30078 12.86C7.76693 12.6357 7.30143 12.328 6.9043 11.937C6.50716 11.5459 6.19466 11.0876 5.9668 10.562C5.73893 10.0363 5.625 9.47863 5.625 8.88889C5.625 8.29915 5.73893 7.74145 5.9668 7.21581C6.19466 6.69017 6.50716 6.23184 6.9043 5.84081C7.30143 5.44979 7.76693 5.14209 8.30078 4.91774C8.83464 4.69338 9.40104 4.5812 10 4.5812C10.599 4.5812 11.1654 4.69338 11.6992 4.91774C12.2331 5.14209 12.6986 5.44979 13.0957 5.84081C13.4928 6.23184 13.8053 6.69017 14.0332 7.21581C14.2611 7.74145 14.375 8.29915 14.375 8.88889C14.375 9.47863 14.2611 10.0363 14.0332 10.562C13.8053 11.0876 13.4928 11.5459 13.0957 11.937C12.6986 12.328 12.2331 12.6357 11.6992 12.86ZM10 11.9658C9.14062 11.9658 8.40495 11.6645 7.79297 11.062C7.18099 10.4594 6.875 9.73504 6.875 8.88889C6.875 8.04274 7.18099 7.31838 7.79297 6.71581C8.40495 6.11325 9.14062 5.81197 10 5.81197C10.8594 5.81197 11.5951 6.11325 12.207 6.71581C12.819 7.31838 13.125 8.04274 13.125 8.88889C13.125 9.73504 12.819 10.4594 12.207 11.062C11.5951 11.6645 10.8594 11.9658 10 11.9658ZM17.7778 5.67521C17.7778 6.27942 17.2803 6.76923 16.6667 6.76923C16.053 6.76923 15.5556 6.27942 15.5556 5.67521C15.5556 5.071 16.053 4.5812 16.6667 4.5812C17.2803 4.5812 17.7778 5.071 17.7778 5.67521Z" fill="#637381"/>
</svg>
