<svg width="16" height="20" viewBox="0 0 16 20" fill="none" xmlns="http://www.w3.org/2000/svg">
<path fill-rule="evenodd" clip-rule="evenodd" d="M14.5863 6.94202H13.8921V6.24781C13.8882 2.79882 11.0932 0.00382353 7.64426 0C4.19527 0.00382353 1.40027 2.79882 1.39645 6.24781V6.94202H0.702271C0.318861 6.94202 0.00805664 7.25283 0.00805664 7.63624V18.7434C0.00805664 19.1268 0.318861 19.4376 0.702271 19.4376H14.5863C14.9697 19.4376 15.2805 19.1268 15.2805 18.7434V7.6362C15.2805 7.25283 14.9697 6.94202 14.5863 6.94202ZM2.78487 6.24781C2.78487 3.56402 4.9605 1.38839 7.6443 1.38839C10.3281 1.38839 12.5037 3.56402 12.5037 6.24781V6.94202H2.78487V6.24781ZM1.39645 8.33041V18.0492H13.8921V8.33041H1.39645Z" fill="#919EAB"/>
<path fill-rule="evenodd" clip-rule="evenodd" d="M7.64418 10.4131C8.52704 10.4114 9.31453 10.9679 9.60784 11.8006C9.9891 12.8829 9.42073 14.0694 8.33839 14.4506V15.9667C8.33839 16.3501 8.02763 16.6609 7.64422 16.6609C7.26081 16.6609 6.95 16.3501 6.95 15.9667V14.4506C6.11729 14.1573 5.56084 13.3698 5.56251 12.4869C5.56466 11.3394 6.49667 10.4109 7.64418 10.4131ZM6.94996 12.4957C6.94996 12.8791 7.26076 13.1899 7.64418 13.1899C8.02759 13.1899 8.33839 12.8791 8.33839 12.4957C8.33839 12.1123 8.02759 11.8015 7.64418 11.8015C7.26076 11.8015 6.94996 12.1123 6.94996 12.4957Z" fill="#919EAB"/>
</svg>
