<svg width="20" height="20" viewBox="0 0 20 20" fill="none" xmlns="http://www.w3.org/2000/svg">
<path fill-rule="evenodd" clip-rule="evenodd" d="M10 0C12.6675 0 15.1764 1.00723 17.0644 2.83615C18.9574 4.66995 20 7.10953 20 9.70551C20 12.3013 18.9574 14.7409 17.0644 16.5747C15.1764 18.4036 12.6675 19.4109 10 19.4109C8.98254 19.4109 7.98065 19.2633 7.01859 18.972L5.3978 19.6434C5.14938 19.7462 4.90082 19.7984 4.65912 19.7984C4.2218 19.7984 3.82751 19.6259 3.54904 19.3124C3.28018 19.0099 3.13797 18.6021 3.13797 18.1335V16.7647C1.14029 14.9342 0 12.3767 0 9.70551C0 7.10953 1.04263 4.66995 2.93564 2.83615C4.82361 1.00723 7.33246 0 10 0ZM7.173 17.7922C8.08121 18.0887 9.03229 18.239 10 18.239C14.8679 18.239 18.8281 14.4109 18.8281 9.70551C18.8281 5 14.8679 1.17188 10 1.17188C5.13214 1.17188 1.17188 5 1.17188 9.70551C1.17188 12.1255 2.24197 14.4415 4.10782 16.0594C4.23615 16.1707 4.30984 16.3322 4.30984 16.5021V18.1335C4.30984 18.3585 4.37042 18.6266 4.65912 18.6266C4.74503 18.6266 4.84528 18.6038 4.94919 18.5608L6.76682 17.8078C6.89606 17.7544 7.0401 17.7487 7.173 17.7922Z" fill="currentColor"/>
<path fill-rule="evenodd" clip-rule="evenodd" d="M14.5018 6.40433C14.8654 6.15729 15.1533 6.04224 15.4077 6.04224C15.6778 6.04224 15.9152 6.1759 16.0428 6.3996C16.2753 6.80746 16.053 7.28537 15.8336 7.65601L13.3395 11.8668C12.9672 12.4956 12.3186 12.8708 11.6046 12.8708H11.6045C11.1819 12.8708 10.7715 12.7378 10.4176 12.4862L8.38897 11.0428L5.49819 13.0067C5.13442 13.2537 4.84664 13.3687 4.59227 13.3687C4.32219 13.3687 4.08477 13.2351 3.9572 13.0114C3.72466 12.6035 3.94683 12.1256 4.1664 11.755L6.66015 7.54416C7.03246 6.9155 7.68126 6.54013 8.39538 6.54013C8.81789 6.54013 9.2282 6.67319 9.58205 6.9248L11.6109 8.36813L14.5018 6.40433ZM11.6046 11.699C11.9005 11.699 12.1721 11.5386 12.3314 11.2697L14.2876 7.96652L11.9324 9.56641C11.7299 9.70404 11.463 9.70114 11.2636 9.55908L8.90258 7.8797C8.74846 7.76999 8.57299 7.71201 8.39538 7.71201C8.09951 7.71201 7.82775 7.87253 7.66845 8.14139L5.71227 11.4445L8.06731 9.84473C8.1668 9.77713 8.28185 9.74341 8.3966 9.74341C8.51577 9.74341 8.63463 9.77957 8.73626 9.8519L11.0971 11.5313C11.2514 11.641 11.4268 11.699 11.6046 11.699Z" fill="currentColor"/>
</svg>
