<svg width="16" height="16" viewBox="0 0 16 16" fill="none" xmlns="http://www.w3.org/2000/svg">
<path fill-rule="evenodd" clip-rule="evenodd" d="M7.38856 0.820813L7.47518 0.745565C7.82819 0.476543 8.33467 0.50328 8.65087 0.820333L11.7779 3.96232C12.1285 4.31464 12.1272 4.88451 11.7749 5.23512C11.4226 5.58576 10.8527 5.58441 10.5021 5.23209L8.921 3.64128L8.92 11.2651C8.92 11.724 8.57667 12.1026 8.13289 12.1581L8.02 12.1651C7.52293 12.1651 7.12 11.7622 7.12 11.2651L7.121 3.64028L5.53791 5.23204C5.21649 5.55499 4.71088 5.58303 4.35749 5.3154L4.26514 5.23507C3.9128 4.88443 3.91147 4.31457 4.26207 3.96226L7.38856 0.820813ZM0.75 14.4385C0.335786 14.4385 0 14.7743 0 15.1885C0 15.6027 0.335786 15.9385 0.75 15.9385H15.25C15.6642 15.9385 16 15.6027 16 15.1885C16 14.7743 15.6642 14.4385 15.25 14.4385H0.75Z" fill="#979797"/>
</svg>
