<svg width="22" height="19" viewBox="0 0 22 19" fill="none" xmlns="http://www.w3.org/2000/svg">
<path d="M20.5375 11.9249C20.1718 11.9249 19.875 12.2217 19.875 12.5874V17.2249H1.325V9.27485H8.6125C8.9782 9.27485 9.275 8.97805 9.275 8.61235C9.275 8.24665 8.9782 7.94985 8.6125 7.94985H1.325V5.29985H8.6125C8.9782 5.29985 9.275 5.00305 9.275 4.63735C9.275 4.27165 8.9782 3.97485 8.6125 3.97485H1.325C0.5936 3.97485 0 4.56845 0 5.29985V17.2249C0 17.9563 0.5936 18.5499 1.325 18.5499H19.875C20.6064 18.5499 21.2 17.9563 21.2 17.2249V12.5874C21.2 12.2217 20.9032 11.9249 20.5375 11.9249Z" fill="white"/>
<path d="M5.9624 11.9248H3.3124C2.9467 11.9248 2.6499 12.2216 2.6499 12.5873C2.6499 12.953 2.9467 13.2498 3.3124 13.2498H5.9624C6.3281 13.2498 6.6249 12.953 6.6249 12.5873C6.6249 12.2216 6.3281 11.9248 5.9624 11.9248Z" fill="white"/>
<path fill-rule="evenodd" clip-rule="evenodd" d="M16.1611 0.0529129L20.7986 2.04041C21.0424 2.14509 21.2001 2.38491 21.2001 2.64991V5.29991C21.2001 8.95029 19.8526 11.0809 16.23 13.1625C16.128 13.2208 16.014 13.2499 15.9001 13.2499C15.7861 13.2499 15.6722 13.2208 15.5702 13.1625C11.9476 11.0756 10.6001 8.94499 10.6001 5.29991V2.64991C10.6001 2.38491 10.7578 2.14509 11.0002 2.04041L15.6377 0.0529129C15.806 -0.0173121 15.9928 -0.0173121 16.1611 0.0529129ZM15.9001 11.8189C18.8628 10.0434 19.8751 8.35934 19.8751 5.29991V3.08716L15.9001 1.38321L11.9251 3.08716V5.29991C11.9251 8.35536 12.9374 10.0394 15.9001 11.8189Z" fill="white"/>
<path d="M18.3023 4.11942C18.0174 3.89417 17.6013 3.93789 17.3708 4.22277L15.2879 6.82772L14.4637 5.59547C14.2584 5.29072 13.8463 5.20989 13.5455 5.41129C13.2421 5.61402 13.1586 6.02609 13.3613 6.32952L14.6863 8.31702C14.8043 8.49324 14.9977 8.60189 15.2097 8.61249C15.219 8.61249 15.2296 8.61249 15.2375 8.61249C15.4376 8.61249 15.6284 8.52239 15.7556 8.36339L18.4056 5.05089C18.6335 4.76469 18.5885 4.34864 18.3023 4.11942Z" fill="white"/>
</svg>
