<svg width="20" height="19" viewBox="0 0 20 19" fill="none" xmlns="http://www.w3.org/2000/svg">
<path d="M17.9453 1.00391C17.6406 0.710938 17.3184 0.488281 16.9785 0.335938C16.6504 0.183594 16.3047 0.107422 15.9414 0.107422C15.3789 0.107422 14.9043 0.242187 14.5176 0.511719C14.1309 0.769531 13.8789 0.957031 13.7617 1.07422C13.6797 1.14453 13.0527 1.76563 11.8809 2.9375C10.7207 4.10937 9.45508 5.38086 8.08398 6.75195C6.71289 8.12305 5.45898 9.37695 4.32227 10.5137C3.19727 11.6387 2.63477 12.2012 2.63477 12.2012C2.59961 12.2363 2.57031 12.2773 2.54688 12.3242C2.52344 12.3594 2.5 12.4004 2.47656 12.4473C2.41797 12.6816 2.30664 13.0684 2.14258 13.6074C1.99023 14.1348 1.82617 14.6797 1.65039 15.2422C1.48633 15.8047 1.33984 16.3027 1.21094 16.7363C1.08203 17.1582 1.01172 17.375 1 17.3867C0.976562 17.4922 0.976562 17.5977 1 17.7031C1.02344 17.8086 1.07617 17.8965 1.1582 17.9668C1.20508 18.0254 1.26367 18.0664 1.33398 18.0898C1.4043 18.125 1.47461 18.1426 1.54492 18.1426C1.58008 18.1426 1.60938 18.1367 1.63281 18.125C1.66797 18.125 1.69727 18.1191 1.7207 18.1074C1.73242 18.1074 1.96094 18.0312 2.40625 17.8789C2.85156 17.7383 3.34961 17.5801 3.90039 17.4043C4.46289 17.2285 5.00781 17.0586 5.53516 16.8945C6.0625 16.7188 6.4082 16.6074 6.57227 16.5605C6.61914 16.5488 6.66016 16.5312 6.69531 16.5078C6.74219 16.4844 6.7832 16.4551 6.81836 16.4199C6.92383 16.3145 7.5332 15.7109 8.64648 14.6094C9.75977 13.5078 10.9785 12.3008 12.3027 10.9883C13.6387 9.66406 14.8809 8.43359 16.0293 7.29688C17.1777 6.16016 17.834 5.50391 17.998 5.32812C18.3379 4.97656 18.5957 4.61914 18.7715 4.25586C18.9473 3.88086 19.0293 3.5 19.0176 3.11328C19.0059 2.75 18.9121 2.39258 18.7363 2.04102C18.5605 1.67773 18.2969 1.33203 17.9453 1.00391ZM13.5859 2.86719C13.7266 2.90234 13.9492 2.99023 14.2539 3.13086C14.5586 3.27148 14.8867 3.51172 15.2383 3.85156C15.5898 4.20312 15.8242 4.55469 15.9414 4.90625C16.0703 5.24609 16.1406 5.46289 16.1523 5.55664C15.6016 6.0957 14.8984 6.78711 14.043 7.63086C13.1992 8.47461 12.3262 9.34766 11.4238 10.25C10.5215 11.1406 9.6543 11.9961 8.82227 12.8164C8.00195 13.625 7.3457 14.2754 6.85352 14.7676C6.75977 14.5566 6.63086 14.3281 6.4668 14.082C6.31445 13.8242 6.12109 13.5723 5.88672 13.3262C5.59375 13.0332 5.30078 12.7988 5.00781 12.623C4.72656 12.4473 4.46875 12.3125 4.23438 12.2188C4.72656 11.7266 5.38867 11.0645 6.2207 10.2324C7.05273 9.40039 7.91992 8.52734 8.82227 7.61328C9.73633 6.69922 10.6211 5.81445 11.4766 4.95898C12.332 4.10352 13.0352 3.40625 13.5859 2.86719ZM3.46094 13.168C3.625 13.2031 3.85352 13.2969 4.14648 13.4492C4.43945 13.5898 4.75 13.8242 5.07812 14.1523C5.32422 14.3984 5.51172 14.6504 5.64062 14.9082C5.76953 15.166 5.86328 15.3828 5.92188 15.5586C5.53516 15.6875 4.97852 15.875 4.25195 16.1211C3.52539 16.3672 2.88672 16.5781 2.33594 16.7539C2.5 16.2266 2.69336 15.6055 2.91602 14.8906C3.15039 14.1758 3.33203 13.6016 3.46094 13.168ZM17.1719 4.51953C17.1602 4.53125 17.1426 4.54883 17.1191 4.57227C17.1074 4.5957 17.0898 4.61914 17.0664 4.64258C16.9844 4.4082 16.8613 4.15039 16.6973 3.86914C16.5332 3.58789 16.3164 3.3125 16.0469 3.04297C15.7656 2.76172 15.4902 2.53906 15.2207 2.375C14.9512 2.19922 14.7051 2.06445 14.4824 1.9707C14.5059 1.94727 14.5234 1.92969 14.5352 1.91797C14.5469 1.90625 14.5586 1.89453 14.5703 1.88281C14.5938 1.84766 14.7344 1.73633 14.9922 1.54883C15.2617 1.36133 15.5781 1.26758 15.9414 1.26758C16.1523 1.26758 16.3574 1.31445 16.5566 1.4082C16.7676 1.50195 16.9668 1.64258 17.1543 1.83008C17.3887 2.05273 17.5645 2.27539 17.6816 2.49805C17.8105 2.7207 17.875 2.9375 17.875 3.14844C17.875 3.35938 17.8164 3.58203 17.6992 3.81641C17.582 4.05078 17.4062 4.28516 17.1719 4.51953Z" fill="#C69500"/>
</svg>
