<svg width="16" height="23" viewBox="0 0 16 23" fill="none" xmlns="http://www.w3.org/2000/svg">
<path fill-rule="evenodd" clip-rule="evenodd" d="M3 5H2C0.89543 5 0 5.89543 0 7V21C0 22.1046 0.89543 23 2 23H11C12.1046 23 13 22.1046 13 21V7C13 5.89543 12.1046 5 11 5H10V6.3H11L11.095 6.30639C11.4367 6.35274 11.7 6.64562 11.7 7V21L11.6936 21.095C11.6473 21.4367 11.3544 21.7 11 21.7H2L1.90501 21.6936C1.56334 21.6473 1.3 21.3544 1.3 21V7L1.30639 6.90501C1.35274 6.56334 1.64562 6.3 2 6.3H3V5Z" fill="currentColor"/>
<path fill-rule="evenodd" clip-rule="evenodd" d="M3 5H2C0.89543 5 0 5.89543 0 7V21C0 22.1046 0.89543 23 2 23H11C12.1046 23 13 22.1046 13 21V7C13 5.89543 12.1046 5 11 5H10V6.3H11L11.095 6.30639C11.4367 6.35274 11.7 6.64562 11.7 7V21L11.6936 21.095C11.6473 21.4367 11.3544 21.7 11 21.7H2L1.90501 21.6936C1.56334 21.6473 1.3 21.3544 1.3 21V7L1.30639 6.90501C1.35274 6.56334 1.64562 6.3 2 6.3H3V5Z" fill="currentColor"/>
<path fill-rule="evenodd" clip-rule="evenodd" d="M10.5 11.8C10.5 11.3582 10.1418 11 9.7 11H3.3C2.85817 11 2.5 11.3582 2.5 11.8V14.2C2.5 14.6418 2.85817 15 3.3 15H9.7C10.1418 15 10.5 14.6418 10.5 14.2V11.8ZM3.8 12.3H9.2V13.7H3.8V12.3Z" fill="currentColor"/>
<path fill-rule="evenodd" clip-rule="evenodd" d="M10.5 11.8C10.5 11.3582 10.1418 11 9.7 11H3.3C2.85817 11 2.5 11.3582 2.5 11.8V14.2C2.5 14.6418 2.85817 15 3.3 15H9.7C10.1418 15 10.5 14.6418 10.5 14.2V11.8ZM3.8 12.3H9.2V13.7H3.8V12.3Z" fill="currentColor"/>
<path fill-rule="evenodd" clip-rule="evenodd" d="M4.29999 17.75C4.29999 18.1642 3.9642 18.5 3.54999 18.5C3.13577 18.5 2.79999 18.1642 2.79999 17.75C2.79999 17.3358 3.13577 17 3.54999 17C3.9642 17 4.29999 17.3358 4.29999 17.75ZM6.54999 18.5C6.9642 18.5 7.29999 18.1642 7.29999 17.75C7.29999 17.3358 6.9642 17 6.54999 17C6.13577 17 5.79999 17.3358 5.79999 17.75C5.79999 18.1642 6.13577 18.5 6.54999 18.5ZM9.54999 18.5C9.9642 18.5 10.3 18.1642 10.3 17.75C10.3 17.3358 9.9642 17 9.54999 17C9.13577 17 8.79999 17.3358 8.79999 17.75C8.79999 18.1642 9.13577 18.5 9.54999 18.5Z" fill="currentColor"/>
<path fill-rule="evenodd" clip-rule="evenodd" d="M4.29999 17.75C4.29999 18.1642 3.9642 18.5 3.54999 18.5C3.13577 18.5 2.79999 18.1642 2.79999 17.75C2.79999 17.3358 3.13577 17 3.54999 17C3.9642 17 4.29999 17.3358 4.29999 17.75ZM6.54999 18.5C6.9642 18.5 7.29999 18.1642 7.29999 17.75C7.29999 17.3358 6.9642 17 6.54999 17C6.13577 17 5.79999 17.3358 5.79999 17.75C5.79999 18.1642 6.13577 18.5 6.54999 18.5ZM9.54999 18.5C9.9642 18.5 10.3 18.1642 10.3 17.75C10.3 17.3358 9.9642 17 9.54999 17C9.13577 17 8.79999 17.3358 8.79999 17.75C8.79999 18.1642 9.13577 18.5 9.54999 18.5Z" fill="currentColor"/>
<path d="M12.3771 0.986481C14.1305 0.986481 15.5634 2.35892 15.6602 4.08819L15.6654 4.27479V14C15.6654 14.5196 15.0942 14.8166 14.6744 14.5539L14.5976 14.498L13.838 13.861L13.8007 13.8936C13.4711 14.144 13.1806 14.9465 12.7504 14.8703L12.473 14.6062C12.35 14.5721 12.4741 14.6479 12.3634 14.5844C12.0521 14.4056 12.2942 14.1136 12.473 13.8023C12.6339 13.5221 13.0924 12.7548 13.1615 12.6533C13.4315 12.2569 13.6987 12.138 14.0578 12.3579L14.1382 12.4158L14.365 12.605L14.3654 4.27479C14.3654 3.22659 13.5542 2.36784 12.5254 2.29193L12.3771 2.28648C11.3337 2.28648 10.479 3.0938 10.4035 4.11781L10.398 4.26551V8.15357C10.398 8.47992 10.1575 8.7501 9.84407 8.79652L9.74802 8.80357H3.23813C2.87915 8.80357 2.58813 8.51256 2.58813 8.15357C2.58813 7.82722 2.82864 7.55704 3.14208 7.51062L3.23813 7.50357L9.09798 7.50301L9.09802 4.26551C9.09803 2.517 10.4666 1.08813 12.191 0.991671L12.3771 0.986481Z" fill="currentColor"/>
<path d="M12.3771 0.986481C14.1305 0.986481 15.5634 2.35892 15.6602 4.08819L15.6654 4.27479V14C15.6654 14.5196 15.0942 14.8166 14.6744 14.5539L14.5976 14.498L13.838 13.861L13.8007 13.8936C13.4711 14.144 13.1806 14.9465 12.7504 14.8703L12.473 14.6062C12.35 14.5721 12.4741 14.6479 12.3634 14.5844C12.0521 14.4056 12.2942 14.1136 12.473 13.8023C12.6339 13.5221 13.0924 12.7548 13.1615 12.6533C13.4315 12.2569 13.6987 12.138 14.0578 12.3579L14.1382 12.4158L14.365 12.605L14.3654 4.27479C14.3654 3.22659 13.5542 2.36784 12.5254 2.29193L12.3771 2.28648C11.3337 2.28648 10.479 3.0938 10.4035 4.11781L10.398 4.26551V8.15357C10.398 8.47992 10.1575 8.7501 9.84407 8.79652L9.74802 8.80357H3.23813C2.87915 8.80357 2.58813 8.51256 2.58813 8.15357C2.58813 7.82722 2.82864 7.55704 3.14208 7.51062L3.23813 7.50357L9.09798 7.50301L9.09802 4.26551C9.09803 2.517 10.4666 1.08813 12.191 0.991671L12.3771 0.986481Z" fill="currentColor"/>
<path d="M12 0.981232V2.28123H6.23813C4.99434 2.28123 3.97624 3.24751 3.89356 4.47034L3.88813 4.63123V8.15357H2.58813V4.63123C2.58813 2.68042 4.11857 1.08706 6.04429 0.986291L6.23813 0.981232H12Z" fill="currentColor"/>
<path d="M12 0.981232V2.28123H6.23813C4.99434 2.28123 3.97624 3.24751 3.89356 4.47034L3.88813 4.63123V8.15357H2.58813V4.63123C2.58813 2.68042 4.11857 1.08706 6.04429 0.986291L6.23813 0.981232H12Z" fill="currentColor"/>
</svg>
