<svg width="20" height="20" viewBox="0 0 20 20" fill="none" xmlns="http://www.w3.org/2000/svg">
<path fill-rule="evenodd" clip-rule="evenodd" d="M0 9.84615C0 4.41696 4.41696 0 9.84615 0C15.2753 0 19.6923 4.41696 19.6923 9.84615C19.6923 15.2753 15.2753 19.6923 9.84615 19.6923C4.41696 19.6923 0 15.2753 0 9.84615ZM1.15385 9.84615C1.15385 14.6391 5.05319 18.5385 9.84615 18.5385C14.6391 18.5385 18.5385 14.6391 18.5385 9.84615C18.5385 5.05319 14.6391 1.15385 9.84615 1.15385C5.05319 1.15385 1.15385 5.05319 1.15385 9.84615Z" fill="#919EAB"/>
<path fill-rule="evenodd" clip-rule="evenodd" d="M13.8845 6.34608C13.8845 8.57289 12.0729 10.3845 9.84608 10.3845C7.61927 10.3845 5.80762 8.57289 5.80762 6.34608C5.80762 4.11927 7.61927 2.30762 9.84608 2.30762C12.0729 2.30762 13.8845 4.11927 13.8845 6.34608ZM12.7307 6.34608C12.7307 4.7555 11.4367 3.46146 9.84608 3.46146C8.2555 3.46146 6.96146 4.7555 6.96146 6.34608C6.96146 7.93666 8.2555 9.23069 9.84608 9.23069C11.4367 9.23069 12.7307 7.93666 12.7307 6.34608Z" fill="#919EAB"/>
<path fill-rule="evenodd" clip-rule="evenodd" d="M13.3077 11.5386C14.4634 11.5386 15.566 12.0354 16.3326 12.9018L16.6061 13.2108L16.4021 13.5694C15.0629 15.9228 12.5508 17.3847 9.84614 17.3847C7.14145 17.3847 4.62937 15.9228 3.29026 13.5695L3.08618 13.2108L3.35964 12.9018C4.1263 12.0354 5.22887 11.5386 6.3846 11.5386H13.3077ZM4.52372 13.3734C5.70149 15.1464 7.70245 16.2309 9.84614 16.2309C11.9898 16.2309 13.9908 15.1464 15.1686 13.3734C14.6512 12.9368 13.9925 12.6924 13.3077 12.6924H6.3846C5.69984 12.6924 5.0411 12.9368 4.52372 13.3734Z" fill="#919EAB"/>
</svg>
