<svg width="52" height="43" viewBox="0 0 52 43" fill="none" xmlns="http://www.w3.org/2000/svg">
<rect x="1" y="9.6001" width="50.4" height="32" rx="1.6" stroke="#98C7FF" stroke-linecap="round" stroke-linejoin="round" stroke-dasharray="4"/>
<rect x="7.9999" y="0.6" width="27.6" height="22" rx="1" fill="white" stroke="#337FD7" stroke-width="1.2"/>
<path d="M8.34912 18.4179L14.271 13.2634L19.5151 16.7917L27.2144 7.60498L35.3386 14.1378" stroke="#337FD7" stroke-width="1.2" stroke-linecap="round" stroke-linejoin="round"/>
<path fill-rule="evenodd" clip-rule="evenodd" d="M15.4 9.60005C16.7255 9.60005 17.8 8.52553 17.8 7.20005C17.8 5.87457 16.7255 4.80005 15.4 4.80005C14.0745 4.80005 13 5.87457 13 7.20005C13 8.52553 14.0745 9.60005 15.4 9.60005Z" fill="#337FD7"/>
<path d="M43.6224 27.5253L32.5393 20.8659C32.4073 20.7792 32.2557 20.7618 32.1084 20.7985C32.0391 20.8158 31.9655 20.8525 31.9113 20.8936C31.725 21.0321 31.636 21.2659 31.6922 21.4912L34.9409 34.5209C34.997 34.7461 35.1853 34.9108 35.4148 34.9456C35.482 34.9565 35.5643 34.9544 35.6336 34.9371C35.7808 34.9004 35.9043 34.8052 35.9824 34.6753L38.0114 31.2984L40.6424 34.8017C40.8329 35.0486 41.188 35.1073 41.4436 34.9148L42.815 33.8827C43.062 33.6923 43.1207 33.3372 42.9281 33.0815L40.1586 29.3919L43.468 28.5668C43.6933 28.5107 43.858 28.3224 43.8928 28.0928C43.9297 27.872 43.8259 27.6402 43.6224 27.5253Z" fill="#337FD7"/>
</svg>
