<svg width="20" height="21" viewBox="0 0 20 21" fill="none" xmlns="http://www.w3.org/2000/svg">
<path fill-rule="evenodd" clip-rule="evenodd" d="M14.5703 16.3281L10.6445 14.1602C11.3737 13.5742 11.8652 12.806 12.1191 11.8555C12.373 10.9049 12.5 10.1107 12.5 9.47266V6.83594C12.5 6.39323 12.3665 5.95378 12.0996 5.51758C11.8327 5.08138 11.4811 4.6875 11.0449 4.33594C10.6087 3.98437 10.1107 3.69792 9.55078 3.47656C8.99088 3.25521 8.41797 3.14453 7.83203 3.14453C7.25911 3.14453 6.68946 3.25521 6.12305 3.47656C5.55664 3.69792 5.05209 3.98437 4.60938 4.33594C4.16666 4.6875 3.8086 5.08138 3.53516 5.51758C3.26172 5.95378 3.125 6.39323 3.125 6.83594V9.47266C3.125 10.0456 3.26823 10.8203 3.55469 11.7969C3.84115 12.7734 4.35546 13.5547 5.09766 14.1406L1.05469 16.3281L0.527344 16.6406C0.175779 16.849 0 17.0964 0 17.3828V18.9648C0 19.2643 0.104166 19.515 0.3125 19.7168C0.520834 19.9186 0.768228 20.0195 1.05469 20.0195H14.5703C14.8568 20.0195 15.1042 19.9186 15.3125 19.7168C15.5208 19.515 15.625 19.2643 15.625 18.9648V17.3828C15.625 17.0703 15.4492 16.8164 15.0977 16.6211L14.5703 16.3281ZM14.375 18.7695H1.25V17.6562L1.39648 17.5586C1.45508 17.5195 1.51042 17.4935 1.5625 17.4805C1.57552 17.4674 1.58854 17.4577 1.60156 17.4512C1.61458 17.4447 1.6276 17.4414 1.64062 17.4414L5.68359 15.2344C5.86589 15.1432 6.01562 15.0098 6.13281 14.834C6.25 14.6582 6.3151 14.4661 6.32812 14.2578C6.35417 14.0495 6.32487 13.8477 6.24023 13.6523C6.1556 13.457 6.03516 13.2943 5.87891 13.1641C5.34505 12.7474 4.96094 12.1517 4.72656 11.377C4.49219 10.6022 4.375 9.96745 4.375 9.47266V6.83594C4.375 6.38021 4.72981 5.85938 5.43945 5.27344C6.14909 4.6875 6.94661 4.39453 7.83203 4.39453C8.74349 4.39453 9.54101 4.6875 10.2246 5.27344C10.9082 5.85938 11.25 6.38021 11.25 6.83594V9.47266C11.25 9.96745 11.1523 10.6022 10.957 11.377C10.7617 12.1517 10.3971 12.7474 9.86328 13.1641C9.69401 13.2943 9.56706 13.457 9.48242 13.6523C9.39779 13.8477 9.36849 14.0495 9.39453 14.2578C9.40755 14.4661 9.47266 14.6582 9.58984 14.834C9.70703 15.0098 9.85677 15.1497 10.0391 15.2539L13.9648 17.4219C13.9909 17.4349 14.0137 17.4479 14.0332 17.4609C14.0527 17.474 14.069 17.4805 14.082 17.4805L14.2383 17.5586C14.2904 17.5846 14.3359 17.6172 14.375 17.6562V18.7695ZM18.9453 13.2227L14.9609 11.0352C15.6901 10.4622 16.1914 9.69727 16.4648 8.74023C16.7383 7.7832 16.875 6.99219 16.875 6.36719V3.73047C16.875 3.28776 16.7383 2.84505 16.4648 2.40234C16.1914 1.95963 15.8333 1.5625 15.3906 1.21094C14.9479 0.859373 14.4434 0.569663 13.877 0.341797C13.3105 0.113931 12.7344 0 12.1484 0C11.3932 0 10.6576 0.18229 9.94141 0.546875C9.22526 0.91146 8.63933 1.36067 8.18359 1.89453C8.44401 1.90755 8.71094 1.92057 8.98438 1.93359C9.25781 1.94661 9.51823 1.99219 9.76562 2.07031C10.0911 1.82292 10.459 1.6276 10.8691 1.48438C11.2793 1.34115 11.7057 1.26953 12.1484 1.26953C13.0599 1.26953 13.8672 1.5625 14.5703 2.14844C15.2734 2.73438 15.625 3.26172 15.625 3.73047V6.36719C15.625 6.84896 15.5176 7.47721 15.3027 8.25195C15.0879 9.0267 14.7135 9.6289 14.1797 10.0586C14.0104 10.1888 13.8835 10.3516 13.7988 10.5469C13.7142 10.7422 13.6849 10.944 13.7109 11.1523C13.724 11.3607 13.7891 11.5527 13.9062 11.7285C14.0234 11.9043 14.1732 12.0443 14.3555 12.1484L18.3398 14.3164C18.3659 14.3294 18.3887 14.3392 18.4082 14.3457C18.4277 14.3522 18.444 14.362 18.457 14.375C18.5091 14.388 18.5612 14.4108 18.6133 14.4434C18.6654 14.4759 18.7109 14.5052 18.75 14.5312V15.6445H16.2305C16.4128 15.7878 16.5462 15.9635 16.6309 16.1719C16.7155 16.3802 16.7969 16.6211 16.875 16.8945H18.9453C19.2318 16.8945 19.4792 16.7936 19.6875 16.5918C19.8958 16.39 20 16.1393 20 15.8398V14.2773C20 13.9648 19.8242 13.7109 19.4727 13.5156L18.9453 13.2227Z" fill="currentColor"/>
</svg>
